STARTFONT 2.1
FONT -bited-bited-Regular-R-Normal--16-150-75-75-P-59-ISO10646-1
SIZE 15 75 75
FONTBOUNDINGBOX 7 17 0 -5
STARTPROPERTIES 24
FOUNDRY "bited"
FAMILY_NAME "bited"
WEIGHT_NAME "Regular"
SLANT "R"
SETWIDTH_NAME "Normal"
ADD_STYLE_NAME ""
PIXEL_SIZE 16
POINT_SIZE 150
RESOLUTION_X 75
RESOLUTION_Y 75
SPACING "P"
AVERAGE_WIDTH 59
CHARSET_REGISTRY "ISO10646"
CHARSET_ENCODING "1"
FONT_ASCENT 12
FONT_DESCENT 4
CAP_HEIGHT 9
X_HEIGHT 5
BITED_DWIDTH 6
BITED_WIDTHS "772 H4sIAAAAAAAACmNgIA4c+M9IpEo0AAAbNwQdYQAAAA=="
BITED_TABLE_CELL_SCALE 2
BITED_EDITOR_GRID_SIZE 32
BITED_EDITOR_CELL_SIZE 12
COPYRIGHT "Copyright 2024 The bited Project Authors (https://github.com/molarmanful/bited)"
ENDPROPERTIES
CHARS 772
STARTCHAR U+0020
ENCODING 32
SWIDTH 822 0
DWIDTH 6 0
BBX 0 0 0 0
BITMAP
ENDCHAR
STARTCHAR U+0021
ENCODING 33
SWIDTH 822 0
DWIDTH 6 0
BBX 1 9 3 0
BITMAP
80
80
80
80
80
80
80
00
80
ENDCHAR
STARTCHAR U+0022
ENCODING 34
SWIDTH 822 0
DWIDTH 6 0
BBX 3 3 2 6
BITMAP
A0
A0
A0
ENDCHAR
STARTCHAR U+0023
ENCODING 35
SWIDTH 822 0
DWIDTH 6 0
BBX 5 7 1 0
BITMAP
50
50
F8
50
F8
50
50
ENDCHAR
STARTCHAR U+0024
ENCODING 36
SWIDTH 822 0
DWIDTH 6 0
BBX 5 11 1 -2
BITMAP
20
20
70
A8
A0
70
28
A8
70
20
20
ENDCHAR
STARTCHAR U+0025
ENCODING 37
SWIDTH 822 0
DWIDTH 6 0
BBX 5 7 1 0
BITMAP
C0
C8
10
20
40
98
18
ENDCHAR
STARTCHAR U+0026
ENCODING 38
SWIDTH 822 0
DWIDTH 6 0
BBX 5 8 1 0
BITMAP
60
80
80
58
A0
90
90
68
ENDCHAR
STARTCHAR U+0027
ENCODING 39
SWIDTH 822 0
DWIDTH 6 0
BBX 1 3 3 6
BITMAP
80
80
80
ENDCHAR
STARTCHAR U+0028
ENCODING 40
SWIDTH 822 0
DWIDTH 6 0
BBX 3 11 2 -2
BITMAP
20
40
40
80
80
80
80
80
40
40
20
ENDCHAR
STARTCHAR U+0029
ENCODING 41
SWIDTH 822 0
DWIDTH 6 0
BBX 3 11 2 -2
BITMAP
80
40
40
20
20
20
20
20
40
40
80
ENDCHAR
STARTCHAR U+002A
ENCODING 42
SWIDTH 822 0
DWIDTH 6 0
BBX 5 5 1 1
BITMAP
20
A8
70
A8
20
ENDCHAR
STARTCHAR U+002B
ENCODING 43
SWIDTH 822 0
DWIDTH 6 0
BBX 5 5 1 1
BITMAP
20
20
F8
20
20
ENDCHAR
STARTCHAR U+002C
ENCODING 44
SWIDTH 822 0
DWIDTH 6 0
BBX 2 3 2 -2
BITMAP
40
40
80
ENDCHAR
STARTCHAR U+002D
ENCODING 45
SWIDTH 822 0
DWIDTH 6 0
BBX 5 1 1 3
BITMAP
F8
ENDCHAR
STARTCHAR U+002E
ENCODING 46
SWIDTH 822 0
DWIDTH 6 0
BBX 1 1 3 0
BITMAP
80
ENDCHAR
STARTCHAR U+002F
ENCODING 47
SWIDTH 822 0
DWIDTH 6 0
BBX 5 11 1 -2
BITMAP
08
08
10
10
20
20
20
40
40
80
80
ENDCHAR
STARTCHAR U+0030
ENCODING 48
SWIDTH 822 0
DWIDTH 6 0
BBX 5 8 1 0
BITMAP
70
88
88
A8
A8
88
88
70
ENDCHAR
STARTCHAR U+0031
ENCODING 49
SWIDTH 822 0
DWIDTH 6 0
BBX 5 8 1 0
BITMAP
20
60
A0
20
20
20
20
F8
ENDCHAR
STARTCHAR U+0032
ENCODING 50
SWIDTH 822 0
DWIDTH 6 0
BBX 5 8 1 0
BITMAP
70
88
08
08
10
20
40
F8
ENDCHAR
STARTCHAR U+0033
ENCODING 51
SWIDTH 822 0
DWIDTH 6 0
BBX 5 8 1 0
BITMAP
F8
10
20
70
08
08
88
70
ENDCHAR
STARTCHAR U+0034
ENCODING 52
SWIDTH 822 0
DWIDTH 6 0
BBX 5 8 1 0
BITMAP
10
30
50
F8
10
10
10
10
ENDCHAR
STARTCHAR U+0035
ENCODING 53
SWIDTH 822 0
DWIDTH 6 0
BBX 5 8 1 0
BITMAP
F8
80
80
F0
08
08
88
70
ENDCHAR
STARTCHAR U+0036
ENCODING 54
SWIDTH 822 0
DWIDTH 6 0
BBX 5 8 1 0
BITMAP
30
40
80
F0
88
88
88
70
ENDCHAR
STARTCHAR U+0037
ENCODING 55
SWIDTH 822 0
DWIDTH 6 0
BBX 5 8 1 0
BITMAP
F8
08
10
10
20
20
20
20
ENDCHAR
STARTCHAR U+0038
ENCODING 56
SWIDTH 822 0
DWIDTH 6 0
BBX 5 8 1 0
BITMAP
70
88
88
70
88
88
88
70
ENDCHAR
STARTCHAR U+0039
ENCODING 57
SWIDTH 822 0
DWIDTH 6 0
BBX 5 8 1 0
BITMAP
70
88
88
88
78
08
10
60
ENDCHAR
STARTCHAR U+003A
ENCODING 58
SWIDTH 822 0
DWIDTH 6 0
BBX 1 5 3 0
BITMAP
80
00
00
00
80
ENDCHAR
STARTCHAR U+003B
ENCODING 59
SWIDTH 822 0
DWIDTH 6 0
BBX 2 7 2 -2
BITMAP
40
00
00
00
40
40
80
ENDCHAR
STARTCHAR U+003C
ENCODING 60
SWIDTH 822 0
DWIDTH 6 0
BBX 4 7 1 0
BITMAP
10
20
40
80
40
20
10
ENDCHAR
STARTCHAR U+003D
ENCODING 61
SWIDTH 822 0
DWIDTH 6 0
BBX 5 3 1 2
BITMAP
F8
00
F8
ENDCHAR
STARTCHAR U+003E
ENCODING 62
SWIDTH 822 0
DWIDTH 6 0
BBX 4 7 2 0
BITMAP
80
40
20
10
20
40
80
ENDCHAR
STARTCHAR U+003F
ENCODING 63
SWIDTH 822 0
DWIDTH 6 0
BBX 5 9 1 0
BITMAP
70
88
08
08
10
20
20
00
20
ENDCHAR
STARTCHAR U+0040
ENCODING 64
SWIDTH 822 0
DWIDTH 6 0
BBX 5 7 1 0
BITMAP
70
88
B8
A8
B8
80
78
ENDCHAR
STARTCHAR U+0041
ENCODING 65
SWIDTH 822 0
DWIDTH 6 0
BBX 5 9 1 0
BITMAP
20
20
20
50
50
70
88
88
88
ENDCHAR
STARTCHAR U+0042
ENCODING 66
SWIDTH 822 0
DWIDTH 6 0
BBX 5 9 1 0
BITMAP
F0
88
88
88
F0
88
88
88
F0
ENDCHAR
STARTCHAR U+0043
ENCODING 67
SWIDTH 822 0
DWIDTH 6 0
BBX 5 9 1 0
BITMAP
70
88
80
80
80
80
80
88
70
ENDCHAR
STARTCHAR U+0044
ENCODING 68
SWIDTH 822 0
DWIDTH 6 0
BBX 5 9 1 0
BITMAP
E0
90
88
88
88
88
88
90
E0
ENDCHAR
STARTCHAR U+0045
ENCODING 69
SWIDTH 822 0
DWIDTH 6 0
BBX 5 9 1 0
BITMAP
F8
80
80
80
E0
80
80
80
F8
ENDCHAR
STARTCHAR U+0046
ENCODING 70
SWIDTH 822 0
DWIDTH 6 0
BBX 5 9 1 0
BITMAP
F8
80
80
80
E0
80
80
80
80
ENDCHAR
STARTCHAR U+0047
ENCODING 71
SWIDTH 822 0
DWIDTH 6 0
BBX 5 9 1 0
BITMAP
70
88
80
80
98
88
88
88
70
ENDCHAR
STARTCHAR U+0048
ENCODING 72
SWIDTH 822 0
DWIDTH 6 0
BBX 5 9 1 0
BITMAP
88
88
88
88
F8
88
88
88
88
ENDCHAR
STARTCHAR U+0049
ENCODING 73
SWIDTH 822 0
DWIDTH 6 0
BBX 5 9 1 0
BITMAP
F8
20
20
20
20
20
20
20
F8
ENDCHAR
STARTCHAR U+004A
ENCODING 74
SWIDTH 822 0
DWIDTH 6 0
BBX 5 11 1 -2
BITMAP
78
10
10
10
10
10
10
10
10
10
E0
ENDCHAR
STARTCHAR U+004B
ENCODING 75
SWIDTH 822 0
DWIDTH 6 0
BBX 5 9 1 0
BITMAP
88
88
90
90
E0
90
90
88
88
ENDCHAR
STARTCHAR U+004C
ENCODING 76
SWIDTH 822 0
DWIDTH 6 0
BBX 5 9 1 0
BITMAP
80
80
80
80
80
80
80
80
F8
ENDCHAR
STARTCHAR U+004D
ENCODING 77
SWIDTH 822 0
DWIDTH 6 0
BBX 5 9 1 0
BITMAP
88
88
D8
A8
88
88
88
88
88
ENDCHAR
STARTCHAR U+004E
ENCODING 78
SWIDTH 822 0
DWIDTH 6 0
BBX 5 9 1 0
BITMAP
88
88
C8
A8
98
88
88
88
88
ENDCHAR
STARTCHAR U+004F
ENCODING 79
SWIDTH 822 0
DWIDTH 6 0
BBX 5 9 1 0
BITMAP
70
88
88
88
88
88
88
88
70
ENDCHAR
STARTCHAR U+0050
ENCODING 80
SWIDTH 822 0
DWIDTH 6 0
BBX 5 9 1 0
BITMAP
F0
88
88
88
F0
80
80
80
80
ENDCHAR
STARTCHAR U+0051
ENCODING 81
SWIDTH 822 0
DWIDTH 6 0
BBX 5 10 1 -1
BITMAP
70
88
88
88
88
88
88
90
60
18
ENDCHAR
STARTCHAR U+0052
ENCODING 82
SWIDTH 822 0
DWIDTH 6 0
BBX 5 9 1 0
BITMAP
F0
88
88
88
F0
90
90
88
88
ENDCHAR
STARTCHAR U+0053
ENCODING 83
SWIDTH 822 0
DWIDTH 6 0
BBX 5 9 1 0
BITMAP
70
88
80
80
70
08
08
88
70
ENDCHAR
STARTCHAR U+0054
ENCODING 84
SWIDTH 822 0
DWIDTH 6 0
BBX 5 9 1 0
BITMAP
F8
20
20
20
20
20
20
20
20
ENDCHAR
STARTCHAR U+0055
ENCODING 85
SWIDTH 822 0
DWIDTH 6 0
BBX 5 9 1 0
BITMAP
88
88
88
88
88
88
88
88
70
ENDCHAR
STARTCHAR U+0056
ENCODING 86
SWIDTH 822 0
DWIDTH 6 0
BBX 5 9 1 0
BITMAP
88
88
88
50
50
50
20
20
20
ENDCHAR
STARTCHAR U+0057
ENCODING 87
SWIDTH 822 0
DWIDTH 6 0
BBX 5 9 1 0
BITMAP
A8
A8
A8
A8
A8
A8
50
50
50
ENDCHAR
STARTCHAR U+0058
ENCODING 88
SWIDTH 822 0
DWIDTH 6 0
BBX 5 9 1 0
BITMAP
88
88
50
50
20
50
50
88
88
ENDCHAR
STARTCHAR U+0059
ENCODING 89
SWIDTH 822 0
DWIDTH 6 0
BBX 5 9 1 0
BITMAP
88
88
50
50
20
20
20
20
20
ENDCHAR
STARTCHAR U+005A
ENCODING 90
SWIDTH 822 0
DWIDTH 6 0
BBX 5 9 1 0
BITMAP
F8
10
10
20
20
20
40
40
F8
ENDCHAR
STARTCHAR U+005B
ENCODING 91
SWIDTH 822 0
DWIDTH 6 0
BBX 3 11 2 -2
BITMAP
E0
80
80
80
80
80
80
80
80
80
E0
ENDCHAR
STARTCHAR U+005C
ENCODING 92
SWIDTH 822 0
DWIDTH 6 0
BBX 5 11 1 -2
BITMAP
80
80
40
40
20
20
20
10
10
08
08
ENDCHAR
STARTCHAR U+005D
ENCODING 93
SWIDTH 822 0
DWIDTH 6 0
BBX 3 11 2 -2
BITMAP
E0
20
20
20
20
20
20
20
20
20
E0
ENDCHAR
STARTCHAR U+005E
ENCODING 94
SWIDTH 822 0
DWIDTH 6 0
BBX 5 3 1 6
BITMAP
20
50
88
ENDCHAR
STARTCHAR U+005F
ENCODING 95
SWIDTH 822 0
DWIDTH 6 0
BBX 5 1 1 -1
BITMAP
F8
ENDCHAR
STARTCHAR U+0060
ENCODING 96
SWIDTH 822 0
DWIDTH 6 0
BBX 3 3 2 6
BITMAP
80
40
20
ENDCHAR
STARTCHAR U+0061
ENCODING 97
SWIDTH 822 0
DWIDTH 6 0
BBX 5 5 1 0
BITMAP
70
08
78
88
78
ENDCHAR
STARTCHAR U+0062
ENCODING 98
SWIDTH 822 0
DWIDTH 6 0
BBX 5 9 1 0
BITMAP
80
80
80
80
F0
88
88
88
F0
ENDCHAR
STARTCHAR U+0063
ENCODING 99
SWIDTH 822 0
DWIDTH 6 0
BBX 5 5 1 0
BITMAP
70
80
80
88
70
ENDCHAR
STARTCHAR U+0064
ENCODING 100
SWIDTH 822 0
DWIDTH 6 0
BBX 5 9 1 0
BITMAP
08
08
08
08
78
88
88
88
78
ENDCHAR
STARTCHAR U+0065
ENCODING 101
SWIDTH 822 0
DWIDTH 6 0
BBX 5 5 1 0
BITMAP
70
88
F8
80
70
ENDCHAR
STARTCHAR U+0066
ENCODING 102
SWIDTH 822 0
DWIDTH 6 0
BBX 5 11 1 -2
BITMAP
18
20
20
20
F8
20
20
20
20
20
C0
ENDCHAR
STARTCHAR U+0067
ENCODING 103
SWIDTH 822 0
DWIDTH 6 0
BBX 5 7 1 -2
BITMAP
78
88
88
88
78
08
70
ENDCHAR
STARTCHAR U+0068
ENCODING 104
SWIDTH 822 0
DWIDTH 6 0
BBX 5 9 1 0
BITMAP
80
80
80
80
F0
88
88
88
88
ENDCHAR
STARTCHAR U+0069
ENCODING 105
SWIDTH 822 0
DWIDTH 6 0
BBX 5 7 1 0
BITMAP
20
00
60
20
20
20
F8
ENDCHAR
STARTCHAR U+006A
ENCODING 106
SWIDTH 822 0
DWIDTH 6 0
BBX 4 9 1 -2
BITMAP
10
00
30
10
10
10
10
10
E0
ENDCHAR
STARTCHAR U+006B
ENCODING 107
SWIDTH 822 0
DWIDTH 6 0
BBX 5 9 1 0
BITMAP
80
80
80
80
90
A0
C0
A0
98
ENDCHAR
STARTCHAR U+006C
ENCODING 108
SWIDTH 822 0
DWIDTH 6 0
BBX 5 9 1 0
BITMAP
60
20
20
20
20
20
20
20
F8
ENDCHAR
STARTCHAR U+006D
ENCODING 109
SWIDTH 822 0
DWIDTH 6 0
BBX 5 5 1 0
BITMAP
F0
A8
A8
A8
A8
ENDCHAR
STARTCHAR U+006E
ENCODING 110
SWIDTH 822 0
DWIDTH 6 0
BBX 5 5 1 0
BITMAP
F0
88
88
88
88
ENDCHAR
STARTCHAR U+006F
ENCODING 111
SWIDTH 822 0
DWIDTH 6 0
BBX 5 5 1 0
BITMAP
70
88
88
88
70
ENDCHAR
STARTCHAR U+0070
ENCODING 112
SWIDTH 822 0
DWIDTH 6 0
BBX 5 7 1 -2
BITMAP
F0
88
88
88
F0
80
80
ENDCHAR
STARTCHAR U+0071
ENCODING 113
SWIDTH 822 0
DWIDTH 6 0
BBX 5 7 1 -2
BITMAP
78
88
88
88
78
08
08
ENDCHAR
STARTCHAR U+0072
ENCODING 114
SWIDTH 822 0
DWIDTH 6 0
BBX 5 5 1 0
BITMAP
F0
88
80
80
80
ENDCHAR
STARTCHAR U+0073
ENCODING 115
SWIDTH 822 0
DWIDTH 6 0
BBX 5 5 1 0
BITMAP
70
80
70
08
70
ENDCHAR
STARTCHAR U+0074
ENCODING 116
SWIDTH 822 0
DWIDTH 6 0
BBX 5 7 1 0
BITMAP
40
40
F0
40
40
40
38
ENDCHAR
STARTCHAR U+0075
ENCODING 117
SWIDTH 822 0
DWIDTH 6 0
BBX 5 5 1 0
BITMAP
88
88
88
88
78
ENDCHAR
STARTCHAR U+0076
ENCODING 118
SWIDTH 822 0
DWIDTH 6 0
BBX 5 5 1 0
BITMAP
88
50
50
20
20
ENDCHAR
STARTCHAR U+0077
ENCODING 119
SWIDTH 822 0
DWIDTH 6 0
BBX 5 5 1 0
BITMAP
A8
A8
A8
50
50
ENDCHAR
STARTCHAR U+0078
ENCODING 120
SWIDTH 822 0
DWIDTH 6 0
BBX 5 5 1 0
BITMAP
C8
30
20
60
98
ENDCHAR
STARTCHAR U+0079
ENCODING 121
SWIDTH 822 0
DWIDTH 6 0
BBX 5 7 1 -2
BITMAP
88
88
50
50
20
20
C0
ENDCHAR
STARTCHAR U+007A
ENCODING 122
SWIDTH 822 0
DWIDTH 6 0
BBX 5 5 1 0
BITMAP
F8
10
20
40
F8
ENDCHAR
STARTCHAR U+007B
ENCODING 123
SWIDTH 822 0
DWIDTH 6 0
BBX 5 11 1 -2
BITMAP
18
20
20
20
20
C0
20
20
20
20
18
ENDCHAR
STARTCHAR U+007C
ENCODING 124
SWIDTH 822 0
DWIDTH 6 0
BBX 1 11 3 -2
BITMAP
80
80
80
80
80
80
80
80
80
80
80
ENDCHAR
STARTCHAR U+007D
ENCODING 125
SWIDTH 822 0
DWIDTH 6 0
BBX 5 11 1 -2
BITMAP
C0
20
20
20
20
18
20
20
20
20
C0
ENDCHAR
STARTCHAR U+007E
ENCODING 126
SWIDTH 822 0
DWIDTH 6 0
BBX 5 3 1 2
BITMAP
48
A8
90
ENDCHAR
STARTCHAR U+00A0
ENCODING 160
SWIDTH 822 0
DWIDTH 6 0
BBX 0 0 0 0
BITMAP
ENDCHAR
STARTCHAR U+00A1
ENCODING 161
SWIDTH 822 0
DWIDTH 6 0
BBX 1 9 3 -2
BITMAP
80
00
80
80
80
80
80
80
80
ENDCHAR
STARTCHAR U+00A2
ENCODING 162
SWIDTH 822 0
DWIDTH 6 0
BBX 5 9 1 -1
BITMAP
20
20
70
A0
A0
A8
70
20
20
ENDCHAR
STARTCHAR U+00A3
ENCODING 163
SWIDTH 822 0
DWIDTH 6 0
BBX 5 9 1 0
BITMAP
30
48
40
40
F0
40
40
40
B8
ENDCHAR
STARTCHAR U+00A4
ENCODING 164
SWIDTH 822 0
DWIDTH 6 0
BBX 5 5 1 1
BITMAP
88
70
50
70
88
ENDCHAR
STARTCHAR U+00A5
ENCODING 165
SWIDTH 822 0
DWIDTH 6 0
BBX 5 8 1 0
BITMAP
88
50
20
F8
20
F8
20
20
ENDCHAR
STARTCHAR U+00A6
ENCODING 166
SWIDTH 822 0
DWIDTH 6 0
BBX 1 11 3 -2
BITMAP
80
80
80
80
00
00
00
80
80
80
80
ENDCHAR
STARTCHAR U+00A7
ENCODING 167
SWIDTH 822 0
DWIDTH 6 0
BBX 5 9 1 0
BITMAP
70
88
80
70
88
70
08
88
70
ENDCHAR
STARTCHAR U+00A8
ENCODING 168
SWIDTH 822 0
DWIDTH 6 0
BBX 3 1 2 8
BITMAP
A0
ENDCHAR
STARTCHAR U+00A9
ENCODING 169
SWIDTH 822 0
DWIDTH 6 0
BBX 7 8 0 0
BITMAP
38
44
92
AA
A2
9A
44
38
ENDCHAR
STARTCHAR U+00AA
ENCODING 170
SWIDTH 822 0
DWIDTH 6 0
BBX 3 6 2 3
BITMAP
60
A0
A0
60
00
E0
ENDCHAR
STARTCHAR U+00AB
ENCODING 171
SWIDTH 822 0
DWIDTH 6 0
BBX 5 5 1 1
BITMAP
28
50
A0
50
28
ENDCHAR
STARTCHAR U+00AC
ENCODING 172
SWIDTH 822 0
DWIDTH 6 0
BBX 5 3 1 1
BITMAP
F8
08
08
ENDCHAR
STARTCHAR U+00AD
ENCODING 173
SWIDTH 822 0
DWIDTH 6 0
BBX 5 1 1 3
BITMAP
F8
ENDCHAR
STARTCHAR U+00AE
ENCODING 174
SWIDTH 822 0
DWIDTH 6 0
BBX 7 8 0 0
BITMAP
38
44
B2
AA
B2
AA
44
38
ENDCHAR
STARTCHAR U+00AF
ENCODING 175
SWIDTH 822 0
DWIDTH 6 0
BBX 5 1 1 8
BITMAP
F8
ENDCHAR
STARTCHAR U+00B0
ENCODING 176
SWIDTH 822 0
DWIDTH 6 0
BBX 3 3 2 6
BITMAP
40
A0
40
ENDCHAR
STARTCHAR U+00B1
ENCODING 177
SWIDTH 822 0
DWIDTH 6 0
BBX 5 6 1 0
BITMAP
20
20
F8
20
20
F8
ENDCHAR
STARTCHAR U+00B2
ENCODING 178
SWIDTH 822 0
DWIDTH 6 0
BBX 3 5 2 5
BITMAP
40
A0
20
40
E0
ENDCHAR
STARTCHAR U+00B3
ENCODING 179
SWIDTH 822 0
DWIDTH 6 0
BBX 3 5 2 5
BITMAP
C0
20
40
20
C0
ENDCHAR
STARTCHAR U+00B4
ENCODING 180
SWIDTH 822 0
DWIDTH 6 0
BBX 3 3 2 6
BITMAP
20
40
80
ENDCHAR
STARTCHAR U+00B5
ENCODING 181
SWIDTH 822 0
DWIDTH 6 0
BBX 5 9 1 -3
BITMAP
88
88
88
88
D8
A8
80
80
80
ENDCHAR
STARTCHAR U+00B6
ENCODING 182
SWIDTH 822 0
DWIDTH 6 0
BBX 5 9 1 0
BITMAP
78
E8
E8
E8
68
28
28
28
28
ENDCHAR
STARTCHAR U+00B7
ENCODING 183
SWIDTH 822 0
DWIDTH 6 0
BBX 1 1 3 3
BITMAP
80
ENDCHAR
STARTCHAR U+00B8
ENCODING 184
SWIDTH 822 0
DWIDTH 6 0
BBX 3 3 2 -2
BITMAP
40
20
C0
ENDCHAR
STARTCHAR U+00B9
ENCODING 185
SWIDTH 822 0
DWIDTH 6 0
BBX 3 5 2 5
BITMAP
40
C0
40
40
E0
ENDCHAR
STARTCHAR U+00BA
ENCODING 186
SWIDTH 822 0
DWIDTH 6 0
BBX 3 6 2 3
BITMAP
40
A0
A0
40
00
E0
ENDCHAR
STARTCHAR U+00BB
ENCODING 187
SWIDTH 822 0
DWIDTH 6 0
BBX 5 5 1 1
BITMAP
A0
50
28
50
A0
ENDCHAR
STARTCHAR U+00BC
ENCODING 188
SWIDTH 822 0
DWIDTH 6 0
BBX 5 11 1 -1
BITMAP
40
C0
40
40
E0
00
08
18
38
08
08
ENDCHAR
STARTCHAR U+00BD
ENCODING 189
SWIDTH 822 0
DWIDTH 6 0
BBX 5 11 1 -1
BITMAP
40
C0
40
40
E0
00
10
28
08
10
38
ENDCHAR
STARTCHAR U+00BE
ENCODING 190
SWIDTH 822 0
DWIDTH 6 0
BBX 5 11 1 -1
BITMAP
C0
20
40
20
C0
00
08
18
38
08
08
ENDCHAR
STARTCHAR U+00BF
ENCODING 191
SWIDTH 822 0
DWIDTH 6 0
BBX 5 9 1 -2
BITMAP
20
00
20
20
40
80
80
88
70
ENDCHAR
STARTCHAR U+00C0
ENCODING 192
SWIDTH 822 0
DWIDTH 6 0
BBX 5 12 1 0
BITMAP
40
20
00
20
20
20
50
50
70
88
88
88
ENDCHAR
STARTCHAR U+00C1
ENCODING 193
SWIDTH 822 0
DWIDTH 6 0
BBX 5 12 1 0
BITMAP
10
20
00
20
20
20
50
50
70
88
88
88
ENDCHAR
STARTCHAR U+00C2
ENCODING 194
SWIDTH 822 0
DWIDTH 6 0
BBX 5 12 1 0
BITMAP
20
50
00
20
20
20
50
50
70
88
88
88
ENDCHAR
STARTCHAR U+00C3
ENCODING 195
SWIDTH 822 0
DWIDTH 6 0
BBX 5 12 1 0
BITMAP
68
58
00
20
20
20
50
50
70
88
88
88
ENDCHAR
STARTCHAR U+00C4
ENCODING 196
SWIDTH 822 0
DWIDTH 6 0
BBX 5 11 1 0
BITMAP
50
00
20
20
20
50
50
70
88
88
88
ENDCHAR
STARTCHAR U+00C5
ENCODING 197
SWIDTH 822 0
DWIDTH 6 0
BBX 5 11 1 0
BITMAP
20
50
20
20
20
50
50
70
88
88
88
ENDCHAR
STARTCHAR U+00C6
ENCODING 198
SWIDTH 822 0
DWIDTH 6 0
BBX 5 9 1 0
BITMAP
78
A0
A0
A0
F0
A0
A0
A0
B8
ENDCHAR
STARTCHAR U+00C7
ENCODING 199
SWIDTH 822 0
DWIDTH 6 0
BBX 5 12 1 -3
BITMAP
70
88
80
80
80
80
80
88
70
20
10
60
ENDCHAR
STARTCHAR U+00C8
ENCODING 200
SWIDTH 822 0
DWIDTH 6 0
BBX 5 12 1 0
BITMAP
40
20
00
F8
80
80
80
E0
80
80
80
F8
ENDCHAR
STARTCHAR U+00C9
ENCODING 201
SWIDTH 822 0
DWIDTH 6 0
BBX 5 12 1 0
BITMAP
10
20
00
F8
80
80
80
E0
80
80
80
F8
ENDCHAR
STARTCHAR U+00CA
ENCODING 202
SWIDTH 822 0
DWIDTH 6 0
BBX 5 12 1 0
BITMAP
20
50
00
F8
80
80
80
E0
80
80
80
F8
ENDCHAR
STARTCHAR U+00CB
ENCODING 203
SWIDTH 822 0
DWIDTH 6 0
BBX 5 11 1 0
BITMAP
50
00
F8
80
80
80
E0
80
80
80
F8
ENDCHAR
STARTCHAR U+00CC
ENCODING 204
SWIDTH 822 0
DWIDTH 6 0
BBX 5 12 1 0
BITMAP
40
20
00
F8
20
20
20
20
20
20
20
F8
ENDCHAR
STARTCHAR U+00CD
ENCODING 205
SWIDTH 822 0
DWIDTH 6 0
BBX 5 12 1 0
BITMAP
10
20
00
F8
20
20
20
20
20
20
20
F8
ENDCHAR
STARTCHAR U+00CE
ENCODING 206
SWIDTH 822 0
DWIDTH 6 0
BBX 5 12 1 0
BITMAP
20
50
00
F8
20
20
20
20
20
20
20
F8
ENDCHAR
STARTCHAR U+00CF
ENCODING 207
SWIDTH 822 0
DWIDTH 6 0
BBX 5 11 1 0
BITMAP
50
00
F8
20
20
20
20
20
20
20
F8
ENDCHAR
STARTCHAR U+00D0
ENCODING 208
SWIDTH 822 0
DWIDTH 6 0
BBX 6 9 0 0
BITMAP
70
48
44
44
E4
44
44
48
70
ENDCHAR
STARTCHAR U+00D1
ENCODING 209
SWIDTH 822 0
DWIDTH 6 0
BBX 5 12 1 0
BITMAP
68
58
00
88
88
C8
A8
98
88
88
88
88
ENDCHAR
STARTCHAR U+00D2
ENCODING 210
SWIDTH 822 0
DWIDTH 6 0
BBX 5 12 1 0
BITMAP
40
20
00
70
88
88
88
88
88
88
88
70
ENDCHAR
STARTCHAR U+00D3
ENCODING 211
SWIDTH 822 0
DWIDTH 6 0
BBX 5 12 1 0
BITMAP
10
20
00
70
88
88
88
88
88
88
88
70
ENDCHAR
STARTCHAR U+00D4
ENCODING 212
SWIDTH 822 0
DWIDTH 6 0
BBX 5 12 1 0
BITMAP
20
50
00
70
88
88
88
88
88
88
88
70
ENDCHAR
STARTCHAR U+00D5
ENCODING 213
SWIDTH 822 0
DWIDTH 6 0
BBX 5 12 1 0
BITMAP
68
58
00
70
88
88
88
88
88
88
88
70
ENDCHAR
STARTCHAR U+00D6
ENCODING 214
SWIDTH 822 0
DWIDTH 6 0
BBX 5 11 1 0
BITMAP
50
00
70
88
88
88
88
88
88
88
70
ENDCHAR
STARTCHAR U+00D7
ENCODING 215
SWIDTH 822 0
DWIDTH 6 0
BBX 5 5 1 1
BITMAP
88
50
20
50
88
ENDCHAR
STARTCHAR U+00D8
ENCODING 216
SWIDTH 822 0
DWIDTH 6 0
BBX 5 11 1 -1
BITMAP
08
70
98
98
A8
A8
A8
C8
C8
70
80
ENDCHAR
STARTCHAR U+00D9
ENCODING 217
SWIDTH 822 0
DWIDTH 6 0
BBX 5 12 1 0
BITMAP
40
20
00
88
88
88
88
88
88
88
88
70
ENDCHAR
STARTCHAR U+00DA
ENCODING 218
SWIDTH 822 0
DWIDTH 6 0
BBX 5 12 1 0
BITMAP
10
20
00
88
88
88
88
88
88
88
88
70
ENDCHAR
STARTCHAR U+00DB
ENCODING 219
SWIDTH 822 0
DWIDTH 6 0
BBX 5 12 1 0
BITMAP
20
50
00
88
88
88
88
88
88
88
88
70
ENDCHAR
STARTCHAR U+00DC
ENCODING 220
SWIDTH 822 0
DWIDTH 6 0
BBX 5 11 1 0
BITMAP
50
00
88
88
88
88
88
88
88
88
70
ENDCHAR
STARTCHAR U+00DD
ENCODING 221
SWIDTH 822 0
DWIDTH 6 0
BBX 5 12 1 0
BITMAP
10
20
00
88
88
50
50
20
20
20
20
20
ENDCHAR
STARTCHAR U+00DE
ENCODING 222
SWIDTH 822 0
DWIDTH 6 0
BBX 5 9 1 0
BITMAP
80
80
F0
88
88
88
F0
80
80
ENDCHAR
STARTCHAR U+00DF
ENCODING 223
SWIDTH 822 0
DWIDTH 6 0
BBX 5 9 1 0
BITMAP
60
90
90
A0
A0
90
88
88
B0
ENDCHAR
STARTCHAR U+00E0
ENCODING 224
SWIDTH 822 0
DWIDTH 6 0
BBX 5 8 1 0
BITMAP
40
20
00
70
08
78
88
78
ENDCHAR
STARTCHAR U+00E1
ENCODING 225
SWIDTH 822 0
DWIDTH 6 0
BBX 5 8 1 0
BITMAP
10
20
00
70
08
78
88
78
ENDCHAR
STARTCHAR U+00E2
ENCODING 226
SWIDTH 822 0
DWIDTH 6 0
BBX 5 8 1 0
BITMAP
20
50
00
70
08
78
88
78
ENDCHAR
STARTCHAR U+00E3
ENCODING 227
SWIDTH 822 0
DWIDTH 6 0
BBX 5 8 1 0
BITMAP
68
58
00
70
08
78
88
78
ENDCHAR
STARTCHAR U+00E4
ENCODING 228
SWIDTH 822 0
DWIDTH 6 0
BBX 5 7 1 0
BITMAP
50
00
70
08
78
88
78
ENDCHAR
STARTCHAR U+00E5
ENCODING 229
SWIDTH 822 0
DWIDTH 6 0
BBX 5 9 1 0
BITMAP
20
50
20
00
70
08
78
88
78
ENDCHAR
STARTCHAR U+00E6
ENCODING 230
SWIDTH 822 0
DWIDTH 6 0
BBX 5 5 1 0
BITMAP
50
28
70
A0
58
ENDCHAR
STARTCHAR U+00E7
ENCODING 231
SWIDTH 822 0
DWIDTH 6 0
BBX 5 8 1 -3
BITMAP
70
80
80
88
70
20
10
60
ENDCHAR
STARTCHAR U+00E8
ENCODING 232
SWIDTH 822 0
DWIDTH 6 0
BBX 5 8 1 0
BITMAP
40
20
00
70
88
F8
80
70
ENDCHAR
STARTCHAR U+00E9
ENCODING 233
SWIDTH 822 0
DWIDTH 6 0
BBX 5 8 1 0
BITMAP
10
20
00
70
88
F8
80
70
ENDCHAR
STARTCHAR U+00EA
ENCODING 234
SWIDTH 822 0
DWIDTH 6 0
BBX 5 8 1 0
BITMAP
20
50
00
70
88
F8
80
70
ENDCHAR
STARTCHAR U+00EB
ENCODING 235
SWIDTH 822 0
DWIDTH 6 0
BBX 5 7 1 0
BITMAP
50
00
70
88
F8
80
70
ENDCHAR
STARTCHAR U+00EC
ENCODING 236
SWIDTH 822 0
DWIDTH 6 0
BBX 5 8 1 0
BITMAP
40
20
00
60
20
20
20
F8
ENDCHAR
STARTCHAR U+00ED
ENCODING 237
SWIDTH 822 0
DWIDTH 6 0
BBX 5 8 1 0
BITMAP
10
20
00
60
20
20
20
F8
ENDCHAR
STARTCHAR U+00EE
ENCODING 238
SWIDTH 822 0
DWIDTH 6 0
BBX 5 8 1 0
BITMAP
20
50
00
60
20
20
20
F8
ENDCHAR
STARTCHAR U+00EF
ENCODING 239
SWIDTH 822 0
DWIDTH 6 0
BBX 5 7 1 0
BITMAP
50
00
60
20
20
20
F8
ENDCHAR
STARTCHAR U+00F0
ENCODING 240
SWIDTH 822 0
DWIDTH 6 0
BBX 5 9 1 0
BITMAP
50
20
50
08
78
88
88
88
70
ENDCHAR
STARTCHAR U+00F1
ENCODING 241
SWIDTH 822 0
DWIDTH 6 0
BBX 5 8 1 0
BITMAP
68
58
00
F0
88
88
88
88
ENDCHAR
STARTCHAR U+00F2
ENCODING 242
SWIDTH 822 0
DWIDTH 6 0
BBX 5 8 1 0
BITMAP
40
20
00
70
88
88
88
70
ENDCHAR
STARTCHAR U+00F3
ENCODING 243
SWIDTH 822 0
DWIDTH 6 0
BBX 5 8 1 0
BITMAP
10
20
00
70
88
88
88
70
ENDCHAR
STARTCHAR U+00F4
ENCODING 244
SWIDTH 822 0
DWIDTH 6 0
BBX 5 8 1 0
BITMAP
20
50
00
70
88
88
88
70
ENDCHAR
STARTCHAR U+00F5
ENCODING 245
SWIDTH 822 0
DWIDTH 6 0
BBX 5 8 1 0
BITMAP
68
58
00
70
88
88
88
70
ENDCHAR
STARTCHAR U+00F6
ENCODING 246
SWIDTH 822 0
DWIDTH 6 0
BBX 5 7 1 0
BITMAP
50
00
70
88
88
88
70
ENDCHAR
STARTCHAR U+00F7
ENCODING 247
SWIDTH 822 0
DWIDTH 6 0
BBX 5 5 1 1
BITMAP
20
00
F8
00
20
ENDCHAR
STARTCHAR U+00F8
ENCODING 248
SWIDTH 822 0
DWIDTH 6 0
BBX 5 7 1 -1
BITMAP
08
70
98
A8
C8
70
80
ENDCHAR
STARTCHAR U+00F9
ENCODING 249
SWIDTH 822 0
DWIDTH 6 0
BBX 5 8 1 0
BITMAP
40
20
00
88
88
88
88
78
ENDCHAR
STARTCHAR U+00FA
ENCODING 250
SWIDTH 822 0
DWIDTH 6 0
BBX 5 8 1 0
BITMAP
10
20
00
88
88
88
88
78
ENDCHAR
STARTCHAR U+00FB
ENCODING 251
SWIDTH 822 0
DWIDTH 6 0
BBX 5 8 1 0
BITMAP
20
50
00
88
88
88
88
78
ENDCHAR
STARTCHAR U+00FC
ENCODING 252
SWIDTH 822 0
DWIDTH 6 0
BBX 5 7 1 0
BITMAP
50
00
88
88
88
88
78
ENDCHAR
STARTCHAR U+00FD
ENCODING 253
SWIDTH 822 0
DWIDTH 6 0
BBX 5 10 1 -2
BITMAP
10
20
00
88
88
50
50
20
20
C0
ENDCHAR
STARTCHAR U+00FE
ENCODING 254
SWIDTH 822 0
DWIDTH 6 0
BBX 5 12 1 -3
BITMAP
80
80
80
80
F0
88
88
88
F0
80
80
80
ENDCHAR
STARTCHAR U+00FF
ENCODING 255
SWIDTH 822 0
DWIDTH 6 0
BBX 5 9 1 -2
BITMAP
50
00
88
88
50
50
20
20
C0
ENDCHAR
STARTCHAR U+0100
ENCODING 256
SWIDTH 822 0
DWIDTH 6 0
BBX 5 11 1 0
BITMAP
70
00
20
20
20
50
50
70
88
88
88
ENDCHAR
STARTCHAR U+0101
ENCODING 257
SWIDTH 822 0
DWIDTH 6 0
BBX 5 7 1 0
BITMAP
70
00
70
08
78
88
78
ENDCHAR
STARTCHAR U+0102
ENCODING 258
SWIDTH 822 0
DWIDTH 6 0
BBX 5 12 1 0
BITMAP
50
70
00
20
20
20
50
50
70
88
88
88
ENDCHAR
STARTCHAR U+0103
ENCODING 259
SWIDTH 822 0
DWIDTH 6 0
BBX 5 8 1 0
BITMAP
50
70
00
70
08
78
88
78
ENDCHAR
STARTCHAR U+0104
ENCODING 260
SWIDTH 822 0
DWIDTH 6 0
BBX 5 12 1 -3
BITMAP
20
20
20
50
50
70
88
88
88
08
10
18
ENDCHAR
STARTCHAR U+0105
ENCODING 261
SWIDTH 822 0
DWIDTH 6 0
BBX 5 8 1 -3
BITMAP
70
08
78
88
78
08
10
18
ENDCHAR
STARTCHAR U+0106
ENCODING 262
SWIDTH 822 0
DWIDTH 6 0
BBX 5 12 1 0
BITMAP
10
20
00
70
88
80
80
80
80
80
88
70
ENDCHAR
STARTCHAR U+0107
ENCODING 263
SWIDTH 822 0
DWIDTH 6 0
BBX 5 8 1 0
BITMAP
10
20
00
70
80
80
88
70
ENDCHAR
STARTCHAR U+0108
ENCODING 264
SWIDTH 822 0
DWIDTH 6 0
BBX 5 12 1 0
BITMAP
20
50
00
70
88
80
80
80
80
80
88
70
ENDCHAR
STARTCHAR U+0109
ENCODING 265
SWIDTH 822 0
DWIDTH 6 0
BBX 5 8 1 0
BITMAP
20
50
00
70
80
80
88
70
ENDCHAR
STARTCHAR U+010A
ENCODING 266
SWIDTH 822 0
DWIDTH 6 0
BBX 5 11 1 0
BITMAP
20
00
70
88
80
80
80
80
80
88
70
ENDCHAR
STARTCHAR U+010B
ENCODING 267
SWIDTH 822 0
DWIDTH 6 0
BBX 5 7 1 0
BITMAP
20
00
70
80
80
88
70
ENDCHAR
STARTCHAR U+010C
ENCODING 268
SWIDTH 822 0
DWIDTH 6 0
BBX 5 12 1 0
BITMAP
50
20
00
70
88
80
80
80
80
80
88
70
ENDCHAR
STARTCHAR U+010D
ENCODING 269
SWIDTH 822 0
DWIDTH 6 0
BBX 5 8 1 0
BITMAP
50
20
00
70
80
80
88
70
ENDCHAR
STARTCHAR U+010E
ENCODING 270
SWIDTH 822 0
DWIDTH 6 0
BBX 5 9 1 0
BITMAP
E0
90
88
88
88
88
88
90
E0
ENDCHAR
STARTCHAR U+010F
ENCODING 271
SWIDTH 822 0
DWIDTH 6 0
BBX 5 9 1 0
BITMAP
08
08
08
08
78
88
88
88
78
ENDCHAR
STARTCHAR U+0110
ENCODING 272
SWIDTH 822 0
DWIDTH 6 0
BBX 6 9 0 0
BITMAP
70
48
44
44
E4
44
44
48
70
ENDCHAR
STARTCHAR U+0111
ENCODING 273
SWIDTH 822 0
DWIDTH 6 0
BBX 6 9 1 0
BITMAP
08
08
3C
08
78
88
88
88
78
ENDCHAR
STARTCHAR U+0112
ENCODING 274
SWIDTH 822 0
DWIDTH 6 0
BBX 5 11 1 0
BITMAP
70
00
F8
80
80
80
E0
80
80
80
F8
ENDCHAR
STARTCHAR U+0113
ENCODING 275
SWIDTH 822 0
DWIDTH 6 0
BBX 5 7 1 0
BITMAP
70
00
70
88
F8
80
70
ENDCHAR
STARTCHAR U+0114
ENCODING 276
SWIDTH 822 0
DWIDTH 6 0
BBX 5 12 1 0
BITMAP
50
70
00
F8
80
80
80
E0
80
80
80
F8
ENDCHAR
STARTCHAR U+0115
ENCODING 277
SWIDTH 822 0
DWIDTH 6 0
BBX 5 8 1 0
BITMAP
50
70
00
70
88
F8
80
70
ENDCHAR
STARTCHAR U+0116
ENCODING 278
SWIDTH 822 0
DWIDTH 6 0
BBX 5 11 1 0
BITMAP
20
00
F8
80
80
80
E0
80
80
80
F8
ENDCHAR
STARTCHAR U+0117
ENCODING 279
SWIDTH 822 0
DWIDTH 6 0
BBX 5 7 1 0
BITMAP
20
00
70
88
F8
80
70
ENDCHAR
STARTCHAR U+0118
ENCODING 280
SWIDTH 822 0
DWIDTH 6 0
BBX 5 12 1 -3
BITMAP
F8
80
80
80
E0
80
80
80
F8
08
10
18
ENDCHAR
STARTCHAR U+0119
ENCODING 281
SWIDTH 822 0
DWIDTH 6 0
BBX 5 8 1 -3
BITMAP
70
88
F8
80
78
08
10
18
ENDCHAR
STARTCHAR U+011A
ENCODING 282
SWIDTH 822 0
DWIDTH 6 0
BBX 5 12 1 0
BITMAP
50
20
00
F8
80
80
80
E0
80
80
80
F8
ENDCHAR
STARTCHAR U+011B
ENCODING 283
SWIDTH 822 0
DWIDTH 6 0
BBX 5 8 1 0
BITMAP
50
20
00
70
88
F8
80
70
ENDCHAR
STARTCHAR U+011C
ENCODING 284
SWIDTH 822 0
DWIDTH 6 0
BBX 5 12 1 0
BITMAP
20
50
00
70
88
80
80
98
88
88
88
70
ENDCHAR
STARTCHAR U+011D
ENCODING 285
SWIDTH 822 0
DWIDTH 6 0
BBX 5 10 1 -2
BITMAP
20
50
00
78
88
88
88
78
08
70
ENDCHAR
STARTCHAR U+011E
ENCODING 286
SWIDTH 822 0
DWIDTH 6 0
BBX 5 12 1 0
BITMAP
50
70
00
70
88
80
80
98
88
88
88
70
ENDCHAR
STARTCHAR U+011F
ENCODING 287
SWIDTH 822 0
DWIDTH 6 0
BBX 5 10 1 -2
BITMAP
50
70
00
78
88
88
88
78
08
70
ENDCHAR
STARTCHAR U+0120
ENCODING 288
SWIDTH 822 0
DWIDTH 6 0
BBX 5 11 1 0
BITMAP
20
00
70
88
80
80
98
88
88
88
70
ENDCHAR
STARTCHAR U+0121
ENCODING 289
SWIDTH 822 0
DWIDTH 6 0
BBX 5 9 1 -2
BITMAP
20
00
78
88
88
88
78
08
70
ENDCHAR
STARTCHAR U+0122
ENCODING 290
SWIDTH 822 0
DWIDTH 6 0
BBX 5 12 1 -3
BITMAP
70
88
80
80
98
88
88
88
70
00
20
60
ENDCHAR
STARTCHAR U+0123
ENCODING 291
SWIDTH 822 0
DWIDTH 6 0
BBX 5 10 1 -2
BITMAP
30
20
00
78
88
88
88
78
08
70
ENDCHAR
STARTCHAR U+0124
ENCODING 292
SWIDTH 822 0
DWIDTH 6 0
BBX 5 12 1 0
BITMAP
20
50
00
88
88
88
88
F8
88
88
88
88
ENDCHAR
STARTCHAR U+0125
ENCODING 293
SWIDTH 822 0
DWIDTH 6 0
BBX 5 12 1 0
BITMAP
20
50
00
80
80
80
80
F0
88
88
88
88
ENDCHAR
STARTCHAR U+0126
ENCODING 294
SWIDTH 822 0
DWIDTH 6 0
BBX 7 9 0 0
BITMAP
44
44
FE
44
7C
44
44
44
44
ENDCHAR
STARTCHAR U+0127
ENCODING 295
SWIDTH 822 0
DWIDTH 6 0
BBX 6 9 0 0
BITMAP
40
40
F0
40
78
44
44
44
44
ENDCHAR
STARTCHAR U+0128
ENCODING 296
SWIDTH 822 0
DWIDTH 6 0
BBX 5 9 1 0
BITMAP
F8
20
20
20
20
20
20
20
F8
ENDCHAR
STARTCHAR U+0129
ENCODING 297
SWIDTH 822 0
DWIDTH 6 0
BBX 5 8 1 0
BITMAP
D0
B0
00
60
20
20
20
F8
ENDCHAR
STARTCHAR U+012A
ENCODING 298
SWIDTH 822 0
DWIDTH 6 0
BBX 5 11 1 0
BITMAP
70
00
F8
20
20
20
20
20
20
20
F8
ENDCHAR
STARTCHAR U+012B
ENCODING 299
SWIDTH 822 0
DWIDTH 6 0
BBX 5 7 1 0
BITMAP
70
00
60
20
20
20
F8
ENDCHAR
STARTCHAR U+012C
ENCODING 300
SWIDTH 822 0
DWIDTH 6 0
BBX 5 12 1 0
BITMAP
50
70
00
F8
20
20
20
20
20
20
20
F8
ENDCHAR
STARTCHAR U+012D
ENCODING 301
SWIDTH 822 0
DWIDTH 6 0
BBX 5 8 1 0
BITMAP
50
70
00
60
20
20
20
F8
ENDCHAR
STARTCHAR U+012E
ENCODING 302
SWIDTH 822 0
DWIDTH 6 0
BBX 5 12 1 -3
BITMAP
F8
20
20
20
20
20
20
20
F8
20
40
60
ENDCHAR
STARTCHAR U+012F
ENCODING 303
SWIDTH 822 0
DWIDTH 6 0
BBX 5 10 1 -3
BITMAP
20
00
60
20
20
20
F8
20
40
60
ENDCHAR
STARTCHAR U+0130
ENCODING 304
SWIDTH 822 0
DWIDTH 6 0
BBX 5 11 1 0
BITMAP
20
00
F8
20
20
20
20
20
20
20
F8
ENDCHAR
STARTCHAR U+0131
ENCODING 305
SWIDTH 822 0
DWIDTH 6 0
BBX 5 5 1 0
BITMAP
60
20
20
20
F8
ENDCHAR
STARTCHAR U+0132
ENCODING 306
SWIDTH 822 0
DWIDTH 6 0
BBX 5 11 1 -2
BITMAP
E8
48
48
48
48
48
48
48
E8
08
70
ENDCHAR
STARTCHAR U+0133
ENCODING 307
SWIDTH 822 0
DWIDTH 6 0
BBX 5 9 1 -2
BITMAP
48
00
D8
48
48
48
E8
08
70
ENDCHAR
STARTCHAR U+0134
ENCODING 308
SWIDTH 822 0
DWIDTH 6 0
BBX 5 14 1 -2
BITMAP
10
28
00
78
10
10
10
10
10
10
10
10
10
E0
ENDCHAR
STARTCHAR U+0135
ENCODING 309
SWIDTH 822 0
DWIDTH 6 0
BBX 5 10 1 -2
BITMAP
10
28
00
30
10
10
10
10
10
E0
ENDCHAR
STARTCHAR U+0136
ENCODING 310
SWIDTH 822 0
DWIDTH 6 0
BBX 5 12 1 -3
BITMAP
88
88
90
90
E0
90
90
88
88
00
20
60
ENDCHAR
STARTCHAR U+0137
ENCODING 311
SWIDTH 822 0
DWIDTH 6 0
BBX 5 12 1 -3
BITMAP
80
80
80
80
90
A0
C0
A0
98
00
20
60
ENDCHAR
STARTCHAR U+0138
ENCODING 312
SWIDTH 822 0
DWIDTH 6 0
BBX 5 5 1 0
BITMAP
90
A0
C0
A0
98
ENDCHAR
STARTCHAR U+0139
ENCODING 313
SWIDTH 822 0
DWIDTH 6 0
BBX 5 12 1 0
BITMAP
40
80
00
80
80
80
80
80
80
80
80
F8
ENDCHAR
STARTCHAR U+013A
ENCODING 314
SWIDTH 822 0
DWIDTH 6 0
BBX 5 12 1 0
BITMAP
10
20
00
60
20
20
20
20
20
20
20
F8
ENDCHAR
STARTCHAR U+013B
ENCODING 315
SWIDTH 822 0
DWIDTH 6 0
BBX 5 12 1 -3
BITMAP
80
80
80
80
80
80
80
80
F8
00
20
60
ENDCHAR
STARTCHAR U+013C
ENCODING 316
SWIDTH 822 0
DWIDTH 6 0
BBX 5 12 1 -3
BITMAP
60
20
20
20
20
20
20
20
F8
00
20
60
ENDCHAR
STARTCHAR U+013D
ENCODING 317
SWIDTH 822 0
DWIDTH 6 0
BBX 5 9 1 0
BITMAP
90
90
A0
80
80
80
80
80
F8
ENDCHAR
STARTCHAR U+013E
ENCODING 318
SWIDTH 822 0
DWIDTH 6 0
BBX 6 9 1 0
BITMAP
64
24
28
20
20
20
20
20
F8
ENDCHAR
STARTCHAR U+013F
ENCODING 319
SWIDTH 822 0
DWIDTH 6 0
BBX 5 9 1 0
BITMAP
80
80
80
80
A0
80
80
80
F8
ENDCHAR
STARTCHAR U+0140
ENCODING 320
SWIDTH 822 0
DWIDTH 6 0
BBX 5 9 1 0
BITMAP
60
20
20
20
28
20
20
20
F8
ENDCHAR
STARTCHAR U+0141
ENCODING 321
SWIDTH 822 0
DWIDTH 6 0
BBX 6 9 0 0
BITMAP
40
40
40
40
60
C0
40
40
7C
ENDCHAR
STARTCHAR U+0142
ENCODING 322
SWIDTH 822 0
DWIDTH 6 0
BBX 5 9 1 0
BITMAP
60
20
20
20
30
60
20
20
F8
ENDCHAR
STARTCHAR U+0143
ENCODING 323
SWIDTH 822 0
DWIDTH 6 0
BBX 5 12 1 0
BITMAP
10
20
00
88
88
C8
A8
98
88
88
88
88
ENDCHAR
STARTCHAR U+0144
ENCODING 324
SWIDTH 822 0
DWIDTH 6 0
BBX 5 8 1 0
BITMAP
10
20
00
F0
88
88
88
88
ENDCHAR
STARTCHAR U+0145
ENCODING 325
SWIDTH 822 0
DWIDTH 6 0
BBX 5 12 1 -3
BITMAP
88
88
C8
A8
98
88
88
88
88
00
20
60
ENDCHAR
STARTCHAR U+0146
ENCODING 326
SWIDTH 822 0
DWIDTH 6 0
BBX 5 8 1 -3
BITMAP
F0
88
88
88
88
00
20
60
ENDCHAR
STARTCHAR U+0147
ENCODING 327
SWIDTH 822 0
DWIDTH 6 0
BBX 5 12 1 0
BITMAP
50
20
00
88
88
C8
A8
98
88
88
88
88
ENDCHAR
STARTCHAR U+0148
ENCODING 328
SWIDTH 822 0
DWIDTH 6 0
BBX 5 8 1 0
BITMAP
50
20
00
F0
88
88
88
88
ENDCHAR
STARTCHAR U+0149
ENCODING 329
SWIDTH 822 0
DWIDTH 6 0
BBX 5 9 1 0
BITMAP
40
40
80
00
F0
88
88
88
88
ENDCHAR
STARTCHAR U+014A
ENCODING 330
SWIDTH 822 0
DWIDTH 6 0
BBX 5 11 1 -2
BITMAP
88
88
C8
A8
98
88
88
88
88
08
30
ENDCHAR
STARTCHAR U+014B
ENCODING 331
SWIDTH 822 0
DWIDTH 6 0
BBX 5 7 1 -2
BITMAP
F0
88
88
88
88
08
30
ENDCHAR
STARTCHAR U+014C
ENCODING 332
SWIDTH 822 0
DWIDTH 6 0
BBX 5 11 1 0
BITMAP
70
00
70
88
88
88
88
88
88
88
70
ENDCHAR
STARTCHAR U+014D
ENCODING 333
SWIDTH 822 0
DWIDTH 6 0
BBX 5 7 1 0
BITMAP
70
00
70
88
88
88
70
ENDCHAR
STARTCHAR U+014E
ENCODING 334
SWIDTH 822 0
DWIDTH 6 0
BBX 5 12 1 0
BITMAP
50
70
00
70
88
88
88
88
88
88
88
70
ENDCHAR
STARTCHAR U+014F
ENCODING 335
SWIDTH 822 0
DWIDTH 6 0
BBX 5 8 1 0
BITMAP
50
70
00
70
88
88
88
70
ENDCHAR
STARTCHAR U+0150
ENCODING 336
SWIDTH 822 0
DWIDTH 6 0
BBX 5 12 1 0
BITMAP
28
50
00
70
88
88
88
88
88
88
88
70
ENDCHAR
STARTCHAR U+0151
ENCODING 337
SWIDTH 822 0
DWIDTH 6 0
BBX 5 8 1 0
BITMAP
28
50
00
70
88
88
88
70
ENDCHAR
STARTCHAR U+0152
ENCODING 338
SWIDTH 822 0
DWIDTH 6 0
BBX 5 9 1 0
BITMAP
58
A0
A0
A0
B0
A0
A0
A0
58
ENDCHAR
STARTCHAR U+0153
ENCODING 339
SWIDTH 822 0
DWIDTH 6 0
BBX 5 5 1 0
BITMAP
50
A8
B0
A0
58
ENDCHAR
STARTCHAR U+0154
ENCODING 340
SWIDTH 822 0
DWIDTH 6 0
BBX 5 12 1 0
BITMAP
10
20
00
F0
88
88
88
F0
90
90
88
88
ENDCHAR
STARTCHAR U+0155
ENCODING 341
SWIDTH 822 0
DWIDTH 6 0
BBX 5 8 1 0
BITMAP
10
20
00
F0
88
80
80
80
ENDCHAR
STARTCHAR U+0156
ENCODING 342
SWIDTH 822 0
DWIDTH 6 0
BBX 5 12 1 -3
BITMAP
F0
88
88
88
F0
90
90
88
88
00
20
60
ENDCHAR
STARTCHAR U+0157
ENCODING 343
SWIDTH 822 0
DWIDTH 6 0
BBX 5 8 1 -3
BITMAP
F0
88
80
80
80
00
40
C0
ENDCHAR
STARTCHAR U+0158
ENCODING 344
SWIDTH 822 0
DWIDTH 6 0
BBX 5 12 1 0
BITMAP
50
20
00
F0
88
88
88
F0
90
90
88
88
ENDCHAR
STARTCHAR U+0159
ENCODING 345
SWIDTH 822 0
DWIDTH 6 0
BBX 5 8 1 0
BITMAP
50
20
00
F0
88
80
80
80
ENDCHAR
STARTCHAR U+015A
ENCODING 346
SWIDTH 822 0
DWIDTH 6 0
BBX 5 12 1 0
BITMAP
10
20
00
70
88
80
80
70
08
08
88
70
ENDCHAR
STARTCHAR U+015B
ENCODING 347
SWIDTH 822 0
DWIDTH 6 0
BBX 5 8 1 0
BITMAP
10
20
00
70
80
70
08
70
ENDCHAR
STARTCHAR U+015C
ENCODING 348
SWIDTH 822 0
DWIDTH 6 0
BBX 5 12 1 0
BITMAP
20
50
00
70
88
80
80
70
08
08
88
70
ENDCHAR
STARTCHAR U+015D
ENCODING 349
SWIDTH 822 0
DWIDTH 6 0
BBX 5 8 1 0
BITMAP
20
50
00
70
80
70
08
70
ENDCHAR
STARTCHAR U+015E
ENCODING 350
SWIDTH 822 0
DWIDTH 6 0
BBX 5 12 1 -3
BITMAP
70
88
80
80
70
08
08
88
70
20
10
60
ENDCHAR
STARTCHAR U+015F
ENCODING 351
SWIDTH 822 0
DWIDTH 6 0
BBX 5 8 1 -3
BITMAP
70
80
70
08
70
20
10
60
ENDCHAR
STARTCHAR U+0160
ENCODING 352
SWIDTH 822 0
DWIDTH 6 0
BBX 5 12 1 0
BITMAP
50
20
00
70
88
80
80
70
08
08
88
70
ENDCHAR
STARTCHAR U+0161
ENCODING 353
SWIDTH 822 0
DWIDTH 6 0
BBX 5 8 1 0
BITMAP
50
20
00
70
80
70
08
70
ENDCHAR
STARTCHAR U+0162
ENCODING 354
SWIDTH 822 0
DWIDTH 6 0
BBX 5 12 1 -3
BITMAP
F8
20
20
20
20
20
20
20
20
00
20
60
ENDCHAR
STARTCHAR U+0163
ENCODING 355
SWIDTH 822 0
DWIDTH 6 0
BBX 5 10 1 -3
BITMAP
40
40
F0
40
40
40
38
00
20
60
ENDCHAR
STARTCHAR U+0164
ENCODING 356
SWIDTH 822 0
DWIDTH 6 0
BBX 5 12 1 0
BITMAP
50
20
00
F8
20
20
20
20
20
20
20
20
ENDCHAR
STARTCHAR U+0165
ENCODING 357
SWIDTH 822 0
DWIDTH 6 0
BBX 5 9 1 0
BITMAP
08
08
50
40
F0
40
40
40
38
ENDCHAR
STARTCHAR U+0166
ENCODING 358
SWIDTH 822 0
DWIDTH 6 0
BBX 5 9 1 0
BITMAP
F8
20
20
20
70
20
20
20
20
ENDCHAR
STARTCHAR U+0167
ENCODING 359
SWIDTH 822 0
DWIDTH 6 0
BBX 5 7 1 0
BITMAP
40
40
F0
40
F0
40
38
ENDCHAR
STARTCHAR U+0168
ENCODING 360
SWIDTH 822 0
DWIDTH 6 0
BBX 5 12 1 0
BITMAP
68
58
00
88
88
88
88
88
88
88
88
70
ENDCHAR
STARTCHAR U+0169
ENCODING 361
SWIDTH 822 0
DWIDTH 6 0
BBX 5 8 1 0
BITMAP
68
58
00
88
88
88
88
78
ENDCHAR
STARTCHAR U+016A
ENCODING 362
SWIDTH 822 0
DWIDTH 6 0
BBX 5 11 1 0
BITMAP
70
00
88
88
88
88
88
88
88
88
70
ENDCHAR
STARTCHAR U+016B
ENCODING 363
SWIDTH 822 0
DWIDTH 6 0
BBX 5 7 1 0
BITMAP
70
00
88
88
88
88
78
ENDCHAR
STARTCHAR U+016C
ENCODING 364
SWIDTH 822 0
DWIDTH 6 0
BBX 5 12 1 0
BITMAP
50
70
00
88
88
88
88
88
88
88
88
70
ENDCHAR
STARTCHAR U+016D
ENCODING 365
SWIDTH 822 0
DWIDTH 6 0
BBX 5 8 1 0
BITMAP
50
70
00
88
88
88
88
78
ENDCHAR
STARTCHAR U+016E
ENCODING 366
SWIDTH 822 0
DWIDTH 6 0
BBX 5 12 1 0
BITMAP
20
50
20
00
88
88
88
88
88
88
88
70
ENDCHAR
STARTCHAR U+016F
ENCODING 367
SWIDTH 822 0
DWIDTH 6 0
BBX 5 9 1 0
BITMAP
20
50
20
00
88
88
88
88
78
ENDCHAR
STARTCHAR U+0170
ENCODING 368
SWIDTH 822 0
DWIDTH 6 0
BBX 5 12 1 0
BITMAP
28
50
00
88
88
88
88
88
88
88
88
70
ENDCHAR
STARTCHAR U+0171
ENCODING 369
SWIDTH 822 0
DWIDTH 6 0
BBX 5 8 1 0
BITMAP
28
50
00
88
88
88
88
78
ENDCHAR
STARTCHAR U+0172
ENCODING 370
SWIDTH 822 0
DWIDTH 6 0
BBX 5 12 1 -3
BITMAP
88
88
88
88
88
88
88
88
70
20
40
60
ENDCHAR
STARTCHAR U+0173
ENCODING 371
SWIDTH 822 0
DWIDTH 6 0
BBX 5 8 1 -3
BITMAP
88
88
88
88
78
08
10
18
ENDCHAR
STARTCHAR U+0174
ENCODING 372
SWIDTH 822 0
DWIDTH 6 0
BBX 5 12 1 0
BITMAP
20
50
00
A8
A8
A8
A8
A8
A8
50
50
50
ENDCHAR
STARTCHAR U+0175
ENCODING 373
SWIDTH 822 0
DWIDTH 6 0
BBX 5 8 1 0
BITMAP
20
50
00
A8
A8
A8
50
50
ENDCHAR
STARTCHAR U+0176
ENCODING 374
SWIDTH 822 0
DWIDTH 6 0
BBX 5 12 1 0
BITMAP
20
50
00
88
88
50
50
20
20
20
20
20
ENDCHAR
STARTCHAR U+0177
ENCODING 375
SWIDTH 822 0
DWIDTH 6 0
BBX 5 10 1 -2
BITMAP
20
50
00
88
88
50
50
20
20
C0
ENDCHAR
STARTCHAR U+0178
ENCODING 376
SWIDTH 822 0
DWIDTH 6 0
BBX 5 11 1 0
BITMAP
50
00
88
88
50
50
20
20
20
20
20
ENDCHAR
STARTCHAR U+0179
ENCODING 377
SWIDTH 822 0
DWIDTH 6 0
BBX 5 12 1 0
BITMAP
10
20
00
F8
10
10
20
20
20
40
40
F8
ENDCHAR
STARTCHAR U+017A
ENCODING 378
SWIDTH 822 0
DWIDTH 6 0
BBX 5 8 1 0
BITMAP
10
20
00
F8
10
20
40
F8
ENDCHAR
STARTCHAR U+017B
ENCODING 379
SWIDTH 822 0
DWIDTH 6 0
BBX 5 11 1 0
BITMAP
20
00
F8
10
10
20
20
20
40
40
F8
ENDCHAR
STARTCHAR U+017C
ENCODING 380
SWIDTH 822 0
DWIDTH 6 0
BBX 5 7 1 0
BITMAP
20
00
F8
10
20
40
F8
ENDCHAR
STARTCHAR U+017D
ENCODING 381
SWIDTH 822 0
DWIDTH 6 0
BBX 5 12 1 0
BITMAP
50
20
00
F8
10
10
20
20
20
40
40
F8
ENDCHAR
STARTCHAR U+017E
ENCODING 382
SWIDTH 822 0
DWIDTH 6 0
BBX 5 8 1 0
BITMAP
50
20
00
F8
10
20
40
F8
ENDCHAR
STARTCHAR U+017F
ENCODING 383
SWIDTH 822 0
DWIDTH 6 0
BBX 5 11 1 -2
BITMAP
18
20
20
20
20
20
20
20
20
20
C0
ENDCHAR
STARTCHAR U+0192
ENCODING 402
SWIDTH 822 0
DWIDTH 6 0
BBX 5 11 1 -2
BITMAP
18
20
20
20
F8
20
20
20
20
20
C0
ENDCHAR
STARTCHAR U+01FA
ENCODING 506
SWIDTH 822 0
DWIDTH 6 0
BBX 5 12 1 0
BITMAP
10
20
20
50
20
20
50
50
70
88
88
88
ENDCHAR
STARTCHAR U+01FB
ENCODING 507
SWIDTH 822 0
DWIDTH 6 0
BBX 5 11 1 0
BITMAP
10
20
20
50
20
00
70
08
78
88
78
ENDCHAR
STARTCHAR U+01FC
ENCODING 508
SWIDTH 822 0
DWIDTH 6 0
BBX 5 12 1 0
BITMAP
10
20
00
78
A0
A0
A0
F0
A0
A0
A0
B8
ENDCHAR
STARTCHAR U+01FD
ENCODING 509
SWIDTH 822 0
DWIDTH 6 0
BBX 5 8 1 0
BITMAP
10
20
00
50
28
70
A0
58
ENDCHAR
STARTCHAR U+01FE
ENCODING 510
SWIDTH 822 0
DWIDTH 6 0
BBX 5 13 1 -1
BITMAP
10
20
08
70
98
98
A8
A8
A8
C8
C8
70
80
ENDCHAR
STARTCHAR U+01FF
ENCODING 511
SWIDTH 822 0
DWIDTH 6 0
BBX 5 9 1 -1
BITMAP
10
20
08
70
98
A8
C8
70
80
ENDCHAR
STARTCHAR U+02C6
ENCODING 710
SWIDTH 0 0
DWIDTH 0 0
BBX 3 2 2 10
BITMAP
40
A0
ENDCHAR
STARTCHAR U+02C7
ENCODING 711
SWIDTH 0 0
DWIDTH 0 0
BBX 3 2 2 10
BITMAP
A0
40
ENDCHAR
STARTCHAR U+02C9
ENCODING 713
SWIDTH 0 0
DWIDTH 0 0
BBX 3 1 2 10
BITMAP
E0
ENDCHAR
STARTCHAR U+02D8
ENCODING 728
SWIDTH 0 0
DWIDTH 0 0
BBX 3 2 2 10
BITMAP
A0
E0
ENDCHAR
STARTCHAR U+02D9
ENCODING 729
SWIDTH 0 0
DWIDTH 0 0
BBX 1 1 3 10
BITMAP
80
ENDCHAR
STARTCHAR U+02DA
ENCODING 730
SWIDTH 0 0
DWIDTH 0 0
BBX 3 3 2 9
BITMAP
40
A0
40
ENDCHAR
STARTCHAR U+02DB
ENCODING 731
SWIDTH 0 0
DWIDTH 0 0
BBX 2 3 2 -3
BITMAP
40
80
C0
ENDCHAR
STARTCHAR U+02DC
ENCODING 732
SWIDTH 0 0
DWIDTH 0 0
BBX 4 2 2 10
BITMAP
D0
B0
ENDCHAR
STARTCHAR U+02DD
ENCODING 733
SWIDTH 0 0
DWIDTH 0 0
BBX 4 2 2 10
BITMAP
50
A0
ENDCHAR
STARTCHAR U+0384
ENCODING 900
SWIDTH 0 0
DWIDTH 0 0
BBX 2 2 3 10
BITMAP
40
80
ENDCHAR
STARTCHAR U+0385
ENCODING 901
SWIDTH 0 0
DWIDTH 0 0
BBX 3 4 2 8
BITMAP
20
40
00
A0
ENDCHAR
STARTCHAR U+0386
ENCODING 902
SWIDTH 822 0
DWIDTH 6 0
BBX 5 12 1 0
BITMAP
40
80
00
20
20
20
50
50
70
88
88
88
ENDCHAR
STARTCHAR U+0387
ENCODING 903
SWIDTH 822 0
DWIDTH 6 0
BBX 1 1 3 4
BITMAP
80
ENDCHAR
STARTCHAR U+0388
ENCODING 904
SWIDTH 822 0
DWIDTH 6 0
BBX 5 12 1 0
BITMAP
40
80
00
F8
80
80
80
E0
80
80
80
F8
ENDCHAR
STARTCHAR U+0389
ENCODING 905
SWIDTH 822 0
DWIDTH 6 0
BBX 5 12 1 0
BITMAP
40
80
00
88
88
88
88
F8
88
88
88
88
ENDCHAR
STARTCHAR U+038A
ENCODING 906
SWIDTH 822 0
DWIDTH 6 0
BBX 5 12 1 0
BITMAP
40
80
00
F8
20
20
20
20
20
20
20
F8
ENDCHAR
STARTCHAR U+038C
ENCODING 908
SWIDTH 822 0
DWIDTH 6 0
BBX 5 12 1 0
BITMAP
40
80
00
70
88
88
88
88
88
88
88
70
ENDCHAR
STARTCHAR U+038E
ENCODING 910
SWIDTH 822 0
DWIDTH 6 0
BBX 5 12 1 0
BITMAP
40
80
00
88
88
50
50
20
20
20
20
20
ENDCHAR
STARTCHAR U+038F
ENCODING 911
SWIDTH 822 0
DWIDTH 6 0
BBX 5 12 1 0
BITMAP
40
80
00
70
88
88
88
88
88
50
50
D8
ENDCHAR
STARTCHAR U+0390
ENCODING 912
SWIDTH 822 0
DWIDTH 6 0
BBX 4 10 2 0
BITMAP
20
40
00
A0
00
40
C0
40
40
30
ENDCHAR
STARTCHAR U+0391
ENCODING 913
SWIDTH 822 0
DWIDTH 6 0
BBX 5 9 1 0
BITMAP
20
20
20
50
50
70
88
88
88
ENDCHAR
STARTCHAR U+0392
ENCODING 914
SWIDTH 822 0
DWIDTH 6 0
BBX 5 9 1 0
BITMAP
F0
88
88
88
F0
88
88
88
F0
ENDCHAR
STARTCHAR U+0393
ENCODING 915
SWIDTH 822 0
DWIDTH 6 0
BBX 5 9 1 0
BITMAP
F8
80
80
80
80
80
80
80
80
ENDCHAR
STARTCHAR U+0394
ENCODING 916
SWIDTH 822 0
DWIDTH 6 0
BBX 5 9 1 0
BITMAP
20
20
20
50
50
50
88
88
F8
ENDCHAR
STARTCHAR U+0395
ENCODING 917
SWIDTH 822 0
DWIDTH 6 0
BBX 5 9 1 0
BITMAP
F8
80
80
80
E0
80
80
80
F8
ENDCHAR
STARTCHAR U+0396
ENCODING 918
SWIDTH 822 0
DWIDTH 6 0
BBX 5 9 1 0
BITMAP
F8
10
10
20
20
20
40
40
F8
ENDCHAR
STARTCHAR U+0397
ENCODING 919
SWIDTH 822 0
DWIDTH 6 0
BBX 5 9 1 0
BITMAP
88
88
88
88
F8
88
88
88
88
ENDCHAR
STARTCHAR U+0398
ENCODING 920
SWIDTH 822 0
DWIDTH 6 0
BBX 5 9 1 0
BITMAP
70
88
88
88
F8
88
88
88
70
ENDCHAR
STARTCHAR U+0399
ENCODING 921
SWIDTH 822 0
DWIDTH 6 0
BBX 5 9 1 0
BITMAP
F8
20
20
20
20
20
20
20
F8
ENDCHAR
STARTCHAR U+039A
ENCODING 922
SWIDTH 822 0
DWIDTH 6 0
BBX 5 9 1 0
BITMAP
88
88
90
90
E0
90
90
88
88
ENDCHAR
STARTCHAR U+039B
ENCODING 923
SWIDTH 822 0
DWIDTH 6 0
BBX 5 9 1 0
BITMAP
20
20
20
50
50
50
88
88
88
ENDCHAR
STARTCHAR U+039C
ENCODING 924
SWIDTH 822 0
DWIDTH 6 0
BBX 5 9 1 0
BITMAP
88
88
D8
A8
88
88
88
88
88
ENDCHAR
STARTCHAR U+039D
ENCODING 925
SWIDTH 822 0
DWIDTH 6 0
BBX 5 9 1 0
BITMAP
88
88
C8
A8
98
88
88
88
88
ENDCHAR
STARTCHAR U+039E
ENCODING 926
SWIDTH 822 0
DWIDTH 6 0
BBX 5 9 1 0
BITMAP
F8
00
00
00
70
00
00
00
F8
ENDCHAR
STARTCHAR U+039F
ENCODING 927
SWIDTH 822 0
DWIDTH 6 0
BBX 5 9 1 0
BITMAP
70
88
88
88
88
88
88
88
70
ENDCHAR
STARTCHAR U+03A0
ENCODING 928
SWIDTH 822 0
DWIDTH 6 0
BBX 5 9 1 0
BITMAP
F8
88
88
88
88
88
88
88
88
ENDCHAR
STARTCHAR U+03A1
ENCODING 929
SWIDTH 822 0
DWIDTH 6 0
BBX 5 9 1 0
BITMAP
F0
88
88
88
F0
80
80
80
80
ENDCHAR
STARTCHAR U+03A3
ENCODING 931
SWIDTH 822 0
DWIDTH 6 0
BBX 5 9 1 0
BITMAP
F8
80
40
20
10
20
40
80
F8
ENDCHAR
STARTCHAR U+03A4
ENCODING 932
SWIDTH 822 0
DWIDTH 6 0
BBX 5 9 1 0
BITMAP
F8
20
20
20
20
20
20
20
20
ENDCHAR
STARTCHAR U+03A5
ENCODING 933
SWIDTH 822 0
DWIDTH 6 0
BBX 5 9 1 0
BITMAP
88
88
50
50
20
20
20
20
20
ENDCHAR
STARTCHAR U+03A6
ENCODING 934
SWIDTH 822 0
DWIDTH 6 0
BBX 5 9 1 0
BITMAP
20
20
70
A8
A8
A8
70
20
20
ENDCHAR
STARTCHAR U+03A7
ENCODING 935
SWIDTH 822 0
DWIDTH 6 0
BBX 5 9 1 0
BITMAP
88
88
50
50
20
50
50
88
88
ENDCHAR
STARTCHAR U+03A8
ENCODING 936
SWIDTH 822 0
DWIDTH 6 0
BBX 5 9 1 0
BITMAP
A8
A8
A8
A8
70
20
20
20
20
ENDCHAR
STARTCHAR U+03A9
ENCODING 937
SWIDTH 822 0
DWIDTH 6 0
BBX 5 9 1 0
BITMAP
70
88
88
88
88
88
50
50
D8
ENDCHAR
STARTCHAR U+03AA
ENCODING 938
SWIDTH 822 0
DWIDTH 6 0
BBX 5 11 1 0
BITMAP
50
00
F8
20
20
20
20
20
20
20
F8
ENDCHAR
STARTCHAR U+03AB
ENCODING 939
SWIDTH 822 0
DWIDTH 6 0
BBX 5 11 1 0
BITMAP
50
00
88
88
50
50
20
20
20
20
20
ENDCHAR
STARTCHAR U+03AC
ENCODING 940
SWIDTH 822 0
DWIDTH 6 0
BBX 5 9 1 0
BITMAP
10
20
00
68
98
88
88
98
68
ENDCHAR
STARTCHAR U+03AD
ENCODING 941
SWIDTH 822 0
DWIDTH 6 0
BBX 5 9 1 0
BITMAP
10
20
00
70
80
60
80
88
70
ENDCHAR
STARTCHAR U+03AE
ENCODING 942
SWIDTH 822 0
DWIDTH 6 0
BBX 5 11 1 -2
BITMAP
10
20
00
B0
C8
88
88
88
88
08
08
ENDCHAR
STARTCHAR U+03AF
ENCODING 943
SWIDTH 822 0
DWIDTH 6 0
BBX 4 9 2 0
BITMAP
20
40
00
C0
40
40
40
40
30
ENDCHAR
STARTCHAR U+03B0
ENCODING 944
SWIDTH 822 0
DWIDTH 6 0
BBX 5 11 1 0
BITMAP
10
20
00
50
00
90
88
88
88
88
70
ENDCHAR
STARTCHAR U+03B1
ENCODING 945
SWIDTH 822 0
DWIDTH 6 0
BBX 5 6 1 0
BITMAP
68
98
88
88
98
68
ENDCHAR
STARTCHAR U+03B2
ENCODING 946
SWIDTH 822 0
DWIDTH 6 0
BBX 5 10 1 -2
BITMAP
60
90
90
B0
88
88
88
F0
80
80
ENDCHAR
STARTCHAR U+03B3
ENCODING 947
SWIDTH 822 0
DWIDTH 6 0
BBX 5 8 1 -2
BITMAP
88
48
50
50
20
20
20
20
ENDCHAR
STARTCHAR U+03B4
ENCODING 948
SWIDTH 822 0
DWIDTH 6 0
BBX 5 8 1 0
BITMAP
F8
40
20
50
88
88
88
70
ENDCHAR
STARTCHAR U+03B5
ENCODING 949
SWIDTH 822 0
DWIDTH 6 0
BBX 5 6 1 0
BITMAP
70
80
60
80
88
70
ENDCHAR
STARTCHAR U+03B6
ENCODING 950
SWIDTH 822 0
DWIDTH 6 0
BBX 5 11 1 -2
BITMAP
F8
10
20
40
40
80
80
80
70
08
10
ENDCHAR
STARTCHAR U+03B7
ENCODING 951
SWIDTH 822 0
DWIDTH 6 0
BBX 5 8 1 -2
BITMAP
B0
C8
88
88
88
88
08
08
ENDCHAR
STARTCHAR U+03B8
ENCODING 952
SWIDTH 822 0
DWIDTH 6 0
BBX 5 7 1 0
BITMAP
70
88
88
F8
88
88
70
ENDCHAR
STARTCHAR U+03B9
ENCODING 953
SWIDTH 822 0
DWIDTH 6 0
BBX 4 6 2 0
BITMAP
C0
40
40
40
40
30
ENDCHAR
STARTCHAR U+03BA
ENCODING 954
SWIDTH 822 0
DWIDTH 6 0
BBX 5 6 1 0
BITMAP
98
A0
C0
A0
90
88
ENDCHAR
STARTCHAR U+03BB
ENCODING 955
SWIDTH 822 0
DWIDTH 6 0
BBX 5 8 1 0
BITMAP
40
20
20
20
50
50
90
88
ENDCHAR
STARTCHAR U+03BC
ENCODING 956
SWIDTH 822 0
DWIDTH 6 0
BBX 5 9 1 -3
BITMAP
88
88
88
88
D8
A8
80
80
80
ENDCHAR
STARTCHAR U+03BD
ENCODING 957
SWIDTH 822 0
DWIDTH 6 0
BBX 5 6 1 0
BITMAP
88
48
50
50
20
20
ENDCHAR
STARTCHAR U+03BE
ENCODING 958
SWIDTH 822 0
DWIDTH 6 0
BBX 5 11 1 -2
BITMAP
80
70
80
80
70
80
80
80
70
08
10
ENDCHAR
STARTCHAR U+03BF
ENCODING 959
SWIDTH 822 0
DWIDTH 6 0
BBX 5 6 1 0
BITMAP
70
88
88
88
88
70
ENDCHAR
STARTCHAR U+03C0
ENCODING 960
SWIDTH 822 0
DWIDTH 6 0
BBX 5 6 1 0
BITMAP
F8
50
50
50
50
48
ENDCHAR
STARTCHAR U+03C1
ENCODING 961
SWIDTH 822 0
DWIDTH 6 0
BBX 5 8 1 -2
BITMAP
70
88
88
88
88
F0
80
80
ENDCHAR
STARTCHAR U+03C2
ENCODING 962
SWIDTH 822 0
DWIDTH 6 0
BBX 5 8 1 -2
BITMAP
70
80
80
80
80
70
08
10
ENDCHAR
STARTCHAR U+03C3
ENCODING 963
SWIDTH 822 0
DWIDTH 6 0
BBX 5 6 1 0
BITMAP
78
90
88
88
88
70
ENDCHAR
STARTCHAR U+03C4
ENCODING 964
SWIDTH 822 0
DWIDTH 6 0
BBX 5 6 1 0
BITMAP
F8
20
20
20
20
18
ENDCHAR
STARTCHAR U+03C5
ENCODING 965
SWIDTH 822 0
DWIDTH 6 0
BBX 5 6 1 0
BITMAP
90
88
88
88
88
70
ENDCHAR
STARTCHAR U+03C6
ENCODING 966
SWIDTH 822 0
DWIDTH 6 0
BBX 5 9 1 -3
BITMAP
10
A8
A8
A8
A8
70
20
20
20
ENDCHAR
STARTCHAR U+03C7
ENCODING 967
SWIDTH 822 0
DWIDTH 6 0
BBX 5 8 1 -2
BITMAP
88
48
50
20
20
50
90
88
ENDCHAR
STARTCHAR U+03C8
ENCODING 968
SWIDTH 822 0
DWIDTH 6 0
BBX 5 8 1 -2
BITMAP
A8
A8
A8
A8
A8
70
20
20
ENDCHAR
STARTCHAR U+03C9
ENCODING 969
SWIDTH 822 0
DWIDTH 6 0
BBX 5 6 1 0
BITMAP
50
88
A8
A8
A8
50
ENDCHAR
STARTCHAR U+03CA
ENCODING 970
SWIDTH 822 0
DWIDTH 6 0
BBX 4 8 2 0
BITMAP
A0
00
C0
40
40
40
40
30
ENDCHAR
STARTCHAR U+03CB
ENCODING 971
SWIDTH 822 0
DWIDTH 6 0
BBX 5 8 1 0
BITMAP
50
00
90
88
88
88
88
70
ENDCHAR
STARTCHAR U+03CC
ENCODING 972
SWIDTH 822 0
DWIDTH 6 0
BBX 5 9 1 0
BITMAP
10
20
00
70
88
88
88
88
70
ENDCHAR
STARTCHAR U+03CD
ENCODING 973
SWIDTH 822 0
DWIDTH 6 0
BBX 5 9 1 0
BITMAP
10
20
00
90
88
88
88
88
70
ENDCHAR
STARTCHAR U+03CE
ENCODING 974
SWIDTH 822 0
DWIDTH 6 0
BBX 5 9 1 0
BITMAP
10
20
00
50
88
A8
A8
A8
50
ENDCHAR
STARTCHAR U+0400
ENCODING 1024
SWIDTH 822 0
DWIDTH 6 0
BBX 5 12 1 0
BITMAP
40
20
00
F8
80
80
80
E0
80
80
80
F8
ENDCHAR
STARTCHAR U+0401
ENCODING 1025
SWIDTH 822 0
DWIDTH 6 0
BBX 5 11 1 0
BITMAP
50
00
F8
80
80
80
E0
80
80
80
F8
ENDCHAR
STARTCHAR U+0402
ENCODING 1026
SWIDTH 822 0
DWIDTH 6 0
BBX 5 9 1 0
BITMAP
F0
40
40
40
70
48
48
48
50
ENDCHAR
STARTCHAR U+0403
ENCODING 1027
SWIDTH 822 0
DWIDTH 6 0
BBX 5 12 1 0
BITMAP
10
20
00
F8
80
80
80
80
80
80
80
80
ENDCHAR
STARTCHAR U+0404
ENCODING 1028
SWIDTH 822 0
DWIDTH 6 0
BBX 5 9 1 0
BITMAP
70
88
80
80
E0
80
80
88
70
ENDCHAR
STARTCHAR U+0405
ENCODING 1029
SWIDTH 822 0
DWIDTH 6 0
BBX 5 9 1 0
BITMAP
70
88
80
80
70
08
08
88
70
ENDCHAR
STARTCHAR U+0406
ENCODING 1030
SWIDTH 822 0
DWIDTH 6 0
BBX 5 9 1 0
BITMAP
F8
20
20
20
20
20
20
20
F8
ENDCHAR
STARTCHAR U+0407
ENCODING 1031
SWIDTH 822 0
DWIDTH 6 0
BBX 5 11 1 0
BITMAP
50
00
F8
20
20
20
20
20
20
20
F8
ENDCHAR
STARTCHAR U+0408
ENCODING 1032
SWIDTH 822 0
DWIDTH 6 0
BBX 5 9 1 0
BITMAP
78
10
10
10
10
10
10
10
E0
ENDCHAR
STARTCHAR U+0409
ENCODING 1033
SWIDTH 822 0
DWIDTH 6 0
BBX 6 9 0 0
BITMAP
70
50
50
50
58
54
54
54
98
ENDCHAR
STARTCHAR U+040A
ENCODING 1034
SWIDTH 822 0
DWIDTH 6 0
BBX 5 9 1 0
BITMAP
A0
A0
A0
A0
F0
A8
A8
A8
B0
ENDCHAR
STARTCHAR U+040B
ENCODING 1035
SWIDTH 822 0
DWIDTH 6 0
BBX 5 9 1 0
BITMAP
F0
40
40
40
70
48
48
48
48
ENDCHAR
STARTCHAR U+040C
ENCODING 1036
SWIDTH 822 0
DWIDTH 6 0
BBX 5 12 1 0
BITMAP
10
20
00
98
A0
A0
A0
C0
A0
90
90
88
ENDCHAR
STARTCHAR U+040D
ENCODING 1037
SWIDTH 822 0
DWIDTH 6 0
BBX 5 12 1 0
BITMAP
40
20
00
88
88
98
A8
C8
88
88
88
88
ENDCHAR
STARTCHAR U+040E
ENCODING 1038
SWIDTH 822 0
DWIDTH 6 0
BBX 5 12 1 0
BITMAP
50
20
00
88
88
88
50
50
50
20
20
C0
ENDCHAR
STARTCHAR U+040F
ENCODING 1039
SWIDTH 822 0
DWIDTH 6 0
BBX 5 11 1 -2
BITMAP
88
88
88
88
88
88
88
88
F8
20
20
ENDCHAR
STARTCHAR U+0410
ENCODING 1040
SWIDTH 822 0
DWIDTH 6 0
BBX 5 9 1 0
BITMAP
20
20
20
50
50
70
88
88
88
ENDCHAR
STARTCHAR U+0411
ENCODING 1041
SWIDTH 822 0
DWIDTH 6 0
BBX 5 9 1 0
BITMAP
F0
80
80
80
F0
88
88
88
F0
ENDCHAR
STARTCHAR U+0412
ENCODING 1042
SWIDTH 822 0
DWIDTH 6 0
BBX 5 9 1 0
BITMAP
F0
88
88
88
F0
88
88
88
F0
ENDCHAR
STARTCHAR U+0413
ENCODING 1043
SWIDTH 822 0
DWIDTH 6 0
BBX 5 9 1 0
BITMAP
F8
80
80
80
80
80
80
80
80
ENDCHAR
STARTCHAR U+0414
ENCODING 1044
SWIDTH 822 0
DWIDTH 6 0
BBX 5 11 1 -2
BITMAP
78
48
48
48
48
48
48
88
F8
88
88
ENDCHAR
STARTCHAR U+0415
ENCODING 1045
SWIDTH 822 0
DWIDTH 6 0
BBX 5 9 1 0
BITMAP
F8
80
80
80
E0
80
80
80
F8
ENDCHAR
STARTCHAR U+0416
ENCODING 1046
SWIDTH 822 0
DWIDTH 6 0
BBX 5 9 1 0
BITMAP
A8
A8
A8
A8
70
A8
A8
A8
A8
ENDCHAR
STARTCHAR U+0417
ENCODING 1047
SWIDTH 822 0
DWIDTH 6 0
BBX 5 9 1 0
BITMAP
70
88
08
08
30
08
08
88
70
ENDCHAR
STARTCHAR U+0418
ENCODING 1048
SWIDTH 822 0
DWIDTH 6 0
BBX 5 9 1 0
BITMAP
88
88
98
A8
C8
88
88
88
88
ENDCHAR
STARTCHAR U+0419
ENCODING 1049
SWIDTH 822 0
DWIDTH 6 0
BBX 5 12 1 0
BITMAP
50
20
00
88
88
98
A8
C8
88
88
88
88
ENDCHAR
STARTCHAR U+041A
ENCODING 1050
SWIDTH 822 0
DWIDTH 6 0
BBX 5 9 1 0
BITMAP
98
A0
A0
A0
C0
A0
90
90
88
ENDCHAR
STARTCHAR U+041B
ENCODING 1051
SWIDTH 822 0
DWIDTH 6 0
BBX 5 9 1 0
BITMAP
78
48
48
48
48
48
48
48
88
ENDCHAR
STARTCHAR U+041C
ENCODING 1052
SWIDTH 822 0
DWIDTH 6 0
BBX 5 9 1 0
BITMAP
88
88
D8
A8
88
88
88
88
88
ENDCHAR
STARTCHAR U+041D
ENCODING 1053
SWIDTH 822 0
DWIDTH 6 0
BBX 5 9 1 0
BITMAP
88
88
88
88
F8
88
88
88
88
ENDCHAR
STARTCHAR U+041E
ENCODING 1054
SWIDTH 822 0
DWIDTH 6 0
BBX 5 9 1 0
BITMAP
70
88
88
88
88
88
88
88
70
ENDCHAR
STARTCHAR U+041F
ENCODING 1055
SWIDTH 822 0
DWIDTH 6 0
BBX 5 9 1 0
BITMAP
F8
88
88
88
88
88
88
88
88
ENDCHAR
STARTCHAR U+0420
ENCODING 1056
SWIDTH 822 0
DWIDTH 6 0
BBX 5 9 1 0
BITMAP
F0
88
88
88
F0
80
80
80
80
ENDCHAR
STARTCHAR U+0421
ENCODING 1057
SWIDTH 822 0
DWIDTH 6 0
BBX 5 9 1 0
BITMAP
70
88
80
80
80
80
80
88
70
ENDCHAR
STARTCHAR U+0422
ENCODING 1058
SWIDTH 822 0
DWIDTH 6 0
BBX 5 9 1 0
BITMAP
F8
20
20
20
20
20
20
20
20
ENDCHAR
STARTCHAR U+0423
ENCODING 1059
SWIDTH 822 0
DWIDTH 6 0
BBX 5 9 1 0
BITMAP
88
88
88
50
50
50
20
20
C0
ENDCHAR
STARTCHAR U+0424
ENCODING 1060
SWIDTH 822 0
DWIDTH 6 0
BBX 5 9 1 0
BITMAP
20
70
A8
A8
A8
A8
70
20
20
ENDCHAR
STARTCHAR U+0425
ENCODING 1061
SWIDTH 822 0
DWIDTH 6 0
BBX 5 9 1 0
BITMAP
88
88
50
50
20
50
50
88
88
ENDCHAR
STARTCHAR U+0426
ENCODING 1062
SWIDTH 822 0
DWIDTH 6 0
BBX 5 11 1 -2
BITMAP
90
90
90
90
90
90
90
90
F8
08
08
ENDCHAR
STARTCHAR U+0427
ENCODING 1063
SWIDTH 822 0
DWIDTH 6 0
BBX 5 9 1 0
BITMAP
88
88
88
88
78
08
08
08
08
ENDCHAR
STARTCHAR U+0428
ENCODING 1064
SWIDTH 822 0
DWIDTH 6 0
BBX 5 9 1 0
BITMAP
A8
A8
A8
A8
A8
A8
A8
A8
F8
ENDCHAR
STARTCHAR U+0429
ENCODING 1065
SWIDTH 822 0
DWIDTH 6 0
BBX 5 11 1 -2
BITMAP
A8
A8
A8
A8
A8
A8
A8
A8
F8
08
08
ENDCHAR
STARTCHAR U+042A
ENCODING 1066
SWIDTH 822 0
DWIDTH 6 0
BBX 6 9 0 0
BITMAP
E0
20
20
20
38
24
24
24
38
ENDCHAR
STARTCHAR U+042B
ENCODING 1067
SWIDTH 822 0
DWIDTH 6 0
BBX 5 9 1 0
BITMAP
88
88
88
88
C8
A8
A8
A8
C8
ENDCHAR
STARTCHAR U+042C
ENCODING 1068
SWIDTH 822 0
DWIDTH 6 0
BBX 5 9 1 0
BITMAP
80
80
80
80
F0
88
88
88
F0
ENDCHAR
STARTCHAR U+042D
ENCODING 1069
SWIDTH 822 0
DWIDTH 6 0
BBX 5 9 1 0
BITMAP
70
88
08
08
38
08
08
88
70
ENDCHAR
STARTCHAR U+042E
ENCODING 1070
SWIDTH 822 0
DWIDTH 6 0
BBX 5 9 1 0
BITMAP
90
A8
A8
A8
E8
A8
A8
A8
90
ENDCHAR
STARTCHAR U+042F
ENCODING 1071
SWIDTH 822 0
DWIDTH 6 0
BBX 5 9 1 0
BITMAP
78
88
88
88
78
48
48
88
88
ENDCHAR
STARTCHAR U+0430
ENCODING 1072
SWIDTH 822 0
DWIDTH 6 0
BBX 5 5 1 0
BITMAP
70
08
78
88
78
ENDCHAR
STARTCHAR U+0431
ENCODING 1073
SWIDTH 822 0
DWIDTH 6 0
BBX 5 8 1 0
BITMAP
08
70
80
F0
88
88
88
70
ENDCHAR
STARTCHAR U+0432
ENCODING 1074
SWIDTH 822 0
DWIDTH 6 0
BBX 5 5 1 0
BITMAP
F0
88
F0
88
F0
ENDCHAR
STARTCHAR U+0433
ENCODING 1075
SWIDTH 822 0
DWIDTH 6 0
BBX 5 5 1 0
BITMAP
F8
80
80
80
80
ENDCHAR
STARTCHAR U+0434
ENCODING 1076
SWIDTH 822 0
DWIDTH 6 0
BBX 5 7 1 -2
BITMAP
78
48
48
88
F8
88
88
ENDCHAR
STARTCHAR U+0435
ENCODING 1077
SWIDTH 822 0
DWIDTH 6 0
BBX 5 5 1 0
BITMAP
70
88
F8
80
70
ENDCHAR
STARTCHAR U+0436
ENCODING 1078
SWIDTH 822 0
DWIDTH 6 0
BBX 5 5 1 0
BITMAP
A8
A8
70
A8
A8
ENDCHAR
STARTCHAR U+0437
ENCODING 1079
SWIDTH 822 0
DWIDTH 6 0
BBX 5 5 1 0
BITMAP
70
08
30
88
70
ENDCHAR
STARTCHAR U+0438
ENCODING 1080
SWIDTH 822 0
DWIDTH 6 0
BBX 5 5 1 0
BITMAP
88
98
A8
C8
88
ENDCHAR
STARTCHAR U+0439
ENCODING 1081
SWIDTH 822 0
DWIDTH 6 0
BBX 5 8 1 0
BITMAP
50
20
00
88
98
A8
C8
88
ENDCHAR
STARTCHAR U+043A
ENCODING 1082
SWIDTH 822 0
DWIDTH 6 0
BBX 5 5 1 0
BITMAP
98
A0
E0
90
88
ENDCHAR
STARTCHAR U+043B
ENCODING 1083
SWIDTH 822 0
DWIDTH 6 0
BBX 5 5 1 0
BITMAP
78
48
48
48
88
ENDCHAR
STARTCHAR U+043C
ENCODING 1084
SWIDTH 822 0
DWIDTH 6 0
BBX 5 5 1 0
BITMAP
88
D8
A8
88
88
ENDCHAR
STARTCHAR U+043D
ENCODING 1085
SWIDTH 822 0
DWIDTH 6 0
BBX 5 5 1 0
BITMAP
88
88
F8
88
88
ENDCHAR
STARTCHAR U+043E
ENCODING 1086
SWIDTH 822 0
DWIDTH 6 0
BBX 5 6 1 0
BITMAP
70
88
88
88
88
70
ENDCHAR
STARTCHAR U+043F
ENCODING 1087
SWIDTH 822 0
DWIDTH 6 0
BBX 5 5 1 0
BITMAP
F8
88
88
88
88
ENDCHAR
STARTCHAR U+0440
ENCODING 1088
SWIDTH 822 0
DWIDTH 6 0
BBX 5 7 1 -2
BITMAP
F0
88
88
88
F0
80
80
ENDCHAR
STARTCHAR U+0441
ENCODING 1089
SWIDTH 822 0
DWIDTH 6 0
BBX 5 5 1 0
BITMAP
70
80
80
88
70
ENDCHAR
STARTCHAR U+0442
ENCODING 1090
SWIDTH 822 0
DWIDTH 6 0
BBX 5 5 1 0
BITMAP
F8
20
20
20
20
ENDCHAR
STARTCHAR U+0443
ENCODING 1091
SWIDTH 822 0
DWIDTH 6 0
BBX 5 7 1 -2
BITMAP
88
88
50
50
20
20
C0
ENDCHAR
STARTCHAR U+0444
ENCODING 1092
SWIDTH 822 0
DWIDTH 6 0
BBX 5 9 1 -2
BITMAP
20
20
70
A8
A8
A8
70
20
20
ENDCHAR
STARTCHAR U+0445
ENCODING 1093
SWIDTH 822 0
DWIDTH 6 0
BBX 5 5 1 0
BITMAP
88
50
20
50
88
ENDCHAR
STARTCHAR U+0446
ENCODING 1094
SWIDTH 822 0
DWIDTH 6 0
BBX 5 7 1 -2
BITMAP
90
90
90
90
F8
08
08
ENDCHAR
STARTCHAR U+0447
ENCODING 1095
SWIDTH 822 0
DWIDTH 6 0
BBX 5 5 1 0
BITMAP
88
88
78
08
08
ENDCHAR
STARTCHAR U+0448
ENCODING 1096
SWIDTH 822 0
DWIDTH 6 0
BBX 5 5 1 0
BITMAP
A8
A8
A8
A8
F8
ENDCHAR
STARTCHAR U+0449
ENCODING 1097
SWIDTH 822 0
DWIDTH 6 0
BBX 5 7 1 -2
BITMAP
A8
A8
A8
A8
F8
08
08
ENDCHAR
STARTCHAR U+044A
ENCODING 1098
SWIDTH 822 0
DWIDTH 6 0
BBX 6 5 0 0
BITMAP
E0
20
38
24
38
ENDCHAR
STARTCHAR U+044B
ENCODING 1099
SWIDTH 822 0
DWIDTH 6 0
BBX 5 5 1 0
BITMAP
88
88
C8
A8
C8
ENDCHAR
STARTCHAR U+044C
ENCODING 1100
SWIDTH 822 0
DWIDTH 6 0
BBX 5 5 1 0
BITMAP
80
80
F0
88
F0
ENDCHAR
STARTCHAR U+044D
ENCODING 1101
SWIDTH 822 0
DWIDTH 6 0
BBX 5 5 1 0
BITMAP
70
08
38
88
70
ENDCHAR
STARTCHAR U+044E
ENCODING 1102
SWIDTH 822 0
DWIDTH 6 0
BBX 5 5 1 0
BITMAP
90
A8
E8
A8
90
ENDCHAR
STARTCHAR U+044F
ENCODING 1103
SWIDTH 822 0
DWIDTH 6 0
BBX 5 5 1 0
BITMAP
78
88
78
48
88
ENDCHAR
STARTCHAR U+0450
ENCODING 1104
SWIDTH 822 0
DWIDTH 6 0
BBX 5 8 1 0
BITMAP
40
20
00
70
88
F8
80
70
ENDCHAR
STARTCHAR U+0451
ENCODING 1105
SWIDTH 822 0
DWIDTH 6 0
BBX 5 7 1 0
BITMAP
50
00
70
88
F8
80
70
ENDCHAR
STARTCHAR U+0452
ENCODING 1106
SWIDTH 822 0
DWIDTH 6 0
BBX 5 11 1 -2
BITMAP
40
F0
40
40
70
48
48
48
48
08
10
ENDCHAR
STARTCHAR U+0453
ENCODING 1107
SWIDTH 822 0
DWIDTH 6 0
BBX 5 8 1 0
BITMAP
10
20
00
F8
80
80
80
80
ENDCHAR
STARTCHAR U+0454
ENCODING 1108
SWIDTH 822 0
DWIDTH 6 0
BBX 5 5 1 0
BITMAP
70
80
E0
88
70
ENDCHAR
STARTCHAR U+0455
ENCODING 1109
SWIDTH 822 0
DWIDTH 6 0
BBX 5 5 1 0
BITMAP
70
80
70
08
70
ENDCHAR
STARTCHAR U+0456
ENCODING 1110
SWIDTH 822 0
DWIDTH 6 0
BBX 5 7 1 0
BITMAP
20
00
60
20
20
20
F8
ENDCHAR
STARTCHAR U+0457
ENCODING 1111
SWIDTH 822 0
DWIDTH 6 0
BBX 5 7 1 0
BITMAP
50
00
60
20
20
20
F8
ENDCHAR
STARTCHAR U+0458
ENCODING 1112
SWIDTH 822 0
DWIDTH 6 0
BBX 4 9 1 -2
BITMAP
10
00
30
10
10
10
10
10
E0
ENDCHAR
STARTCHAR U+0459
ENCODING 1113
SWIDTH 822 0
DWIDTH 6 0
BBX 6 5 0 0
BITMAP
70
50
58
54
98
ENDCHAR
STARTCHAR U+045A
ENCODING 1114
SWIDTH 822 0
DWIDTH 6 0
BBX 5 5 1 0
BITMAP
A0
A0
F0
A8
B0
ENDCHAR
STARTCHAR U+045B
ENCODING 1115
SWIDTH 822 0
DWIDTH 6 0
BBX 5 9 1 0
BITMAP
40
F0
40
40
70
48
48
48
48
ENDCHAR
STARTCHAR U+045C
ENCODING 1116
SWIDTH 822 0
DWIDTH 6 0
BBX 5 8 1 0
BITMAP
10
20
00
98
A0
E0
90
88
ENDCHAR
STARTCHAR U+045D
ENCODING 1117
SWIDTH 822 0
DWIDTH 6 0
BBX 5 8 1 0
BITMAP
40
20
00
88
98
A8
C8
88
ENDCHAR
STARTCHAR U+045E
ENCODING 1118
SWIDTH 822 0
DWIDTH 6 0
BBX 5 10 1 -2
BITMAP
50
20
00
88
88
50
50
20
20
C0
ENDCHAR
STARTCHAR U+045F
ENCODING 1119
SWIDTH 822 0
DWIDTH 6 0
BBX 5 7 1 -2
BITMAP
88
88
88
88
F8
20
20
ENDCHAR
STARTCHAR U+0490
ENCODING 1168
SWIDTH 822 0
DWIDTH 6 0
BBX 5 11 1 0
BITMAP
08
08
F8
80
80
80
80
80
80
80
80
ENDCHAR
STARTCHAR U+0491
ENCODING 1169
SWIDTH 822 0
DWIDTH 6 0
BBX 5 7 1 0
BITMAP
08
08
F8
80
80
80
80
ENDCHAR
STARTCHAR U+1E80
ENCODING 7808
SWIDTH 822 0
DWIDTH 6 0
BBX 5 12 1 0
BITMAP
40
20
00
A8
A8
A8
A8
A8
A8
50
50
50
ENDCHAR
STARTCHAR U+1E81
ENCODING 7809
SWIDTH 822 0
DWIDTH 6 0
BBX 5 8 1 0
BITMAP
40
20
00
A8
A8
A8
50
50
ENDCHAR
STARTCHAR U+1E82
ENCODING 7810
SWIDTH 822 0
DWIDTH 6 0
BBX 5 12 1 0
BITMAP
10
20
00
A8
A8
A8
A8
A8
A8
50
50
50
ENDCHAR
STARTCHAR U+1E83
ENCODING 7811
SWIDTH 822 0
DWIDTH 6 0
BBX 5 8 1 0
BITMAP
10
20
00
A8
A8
A8
50
50
ENDCHAR
STARTCHAR U+1E84
ENCODING 7812
SWIDTH 822 0
DWIDTH 6 0
BBX 5 11 1 0
BITMAP
50
00
A8
A8
A8
A8
A8
A8
50
50
50
ENDCHAR
STARTCHAR U+1E85
ENCODING 7813
SWIDTH 822 0
DWIDTH 6 0
BBX 5 7 1 0
BITMAP
50
00
A8
A8
A8
50
50
ENDCHAR
STARTCHAR U+1EF2
ENCODING 7922
SWIDTH 822 0
DWIDTH 6 0
BBX 5 12 1 0
BITMAP
40
20
00
88
88
50
50
20
20
20
20
20
ENDCHAR
STARTCHAR U+1EF3
ENCODING 7923
SWIDTH 822 0
DWIDTH 6 0
BBX 5 10 1 -2
BITMAP
40
20
00
88
88
50
50
20
20
C0
ENDCHAR
STARTCHAR U+2010
ENCODING 8208
SWIDTH 822 0
DWIDTH 6 0
BBX 3 1 2 3
BITMAP
E0
ENDCHAR
STARTCHAR U+2011
ENCODING 8209
SWIDTH 822 0
DWIDTH 6 0
BBX 3 1 2 3
BITMAP
E0
ENDCHAR
STARTCHAR U+2012
ENCODING 8210
SWIDTH 822 0
DWIDTH 6 0
BBX 5 1 1 3
BITMAP
F8
ENDCHAR
STARTCHAR U+2013
ENCODING 8211
SWIDTH 822 0
DWIDTH 6 0
BBX 5 1 1 3
BITMAP
F8
ENDCHAR
STARTCHAR U+2014
ENCODING 8212
SWIDTH 822 0
DWIDTH 6 0
BBX 7 1 0 3
BITMAP
FE
ENDCHAR
STARTCHAR U+2015
ENCODING 8213
SWIDTH 822 0
DWIDTH 6 0
BBX 7 1 0 3
BITMAP
FE
ENDCHAR
STARTCHAR U+2017
ENCODING 8215
SWIDTH 822 0
DWIDTH 6 0
BBX 5 3 1 -3
BITMAP
F8
00
F8
ENDCHAR
STARTCHAR U+2018
ENCODING 8216
SWIDTH 822 0
DWIDTH 6 0
BBX 2 3 3 6
BITMAP
40
80
80
ENDCHAR
STARTCHAR U+2019
ENCODING 8217
SWIDTH 822 0
DWIDTH 6 0
BBX 2 3 2 6
BITMAP
40
40
80
ENDCHAR
STARTCHAR U+201A
ENCODING 8218
SWIDTH 822 0
DWIDTH 6 0
BBX 2 3 2 -2
BITMAP
40
40
80
ENDCHAR
STARTCHAR U+201B
ENCODING 8219
SWIDTH 822 0
DWIDTH 6 0
BBX 2 3 3 6
BITMAP
80
80
40
ENDCHAR
STARTCHAR U+201C
ENCODING 8220
SWIDTH 822 0
DWIDTH 6 0
BBX 4 3 1 6
BITMAP
50
A0
A0
ENDCHAR
STARTCHAR U+201D
ENCODING 8221
SWIDTH 822 0
DWIDTH 6 0
BBX 4 3 2 6
BITMAP
50
50
A0
ENDCHAR
STARTCHAR U+201E
ENCODING 8222
SWIDTH 822 0
DWIDTH 6 0
BBX 4 3 2 -2
BITMAP
50
50
A0
ENDCHAR
STARTCHAR U+201F
ENCODING 8223
SWIDTH 822 0
DWIDTH 6 0
BBX 4 3 1 6
BITMAP
A0
A0
50
ENDCHAR
STARTCHAR U+2020
ENCODING 8224
SWIDTH 822 0
DWIDTH 6 0
BBX 5 10 1 -2
BITMAP
20
20
20
F8
20
20
20
20
20
20
ENDCHAR
STARTCHAR U+2021
ENCODING 8225
SWIDTH 822 0
DWIDTH 6 0
BBX 5 10 1 -2
BITMAP
20
20
20
F8
20
20
F8
20
20
20
ENDCHAR
STARTCHAR U+2022
ENCODING 8226
SWIDTH 822 0
DWIDTH 6 0
BBX 3 3 2 2
BITMAP
40
E0
40
ENDCHAR
STARTCHAR U+2023
ENCODING 8227
SWIDTH 822 0
DWIDTH 6 0
BBX 3 5 2 1
BITMAP
80
C0
E0
C0
80
ENDCHAR
STARTCHAR U+2026
ENCODING 8230
SWIDTH 822 0
DWIDTH 6 0
BBX 5 1 1 0
BITMAP
A8
ENDCHAR
STARTCHAR U+2030
ENCODING 8240
SWIDTH 822 0
DWIDTH 6 0
BBX 6 8 1 0
BITMAP
C0
C0
0C
30
C0
00
6C
6C
ENDCHAR
STARTCHAR U+2032
ENCODING 8242
SWIDTH 822 0
DWIDTH 6 0
BBX 2 2 2 7
BITMAP
40
80
ENDCHAR
STARTCHAR U+2033
ENCODING 8243
SWIDTH 822 0
DWIDTH 6 0
BBX 4 2 2 7
BITMAP
50
A0
ENDCHAR
STARTCHAR U+2039
ENCODING 8249
SWIDTH 822 0
DWIDTH 6 0
BBX 3 5 2 1
BITMAP
20
40
80
40
20
ENDCHAR
STARTCHAR U+203A
ENCODING 8250
SWIDTH 822 0
DWIDTH 6 0
BBX 3 5 2 1
BITMAP
80
40
20
40
80
ENDCHAR
STARTCHAR U+203C
ENCODING 8252
SWIDTH 822 0
DWIDTH 6 0
BBX 4 9 2 0
BITMAP
90
90
90
90
90
90
90
00
90
ENDCHAR
STARTCHAR U+203E
ENCODING 8254
SWIDTH 822 0
DWIDTH 6 0
BBX 5 1 1 8
BITMAP
F8
ENDCHAR
STARTCHAR U+2044
ENCODING 8260
SWIDTH 822 0
DWIDTH 6 0
BBX 5 10 1 -1
BITMAP
08
08
10
10
20
20
40
40
80
80
ENDCHAR
STARTCHAR U+207F
ENCODING 8319
SWIDTH 822 0
DWIDTH 6 0
BBX 3 4 2 5
BITMAP
C0
A0
A0
A0
ENDCHAR
STARTCHAR U+20A3
ENCODING 8355
SWIDTH 822 0
DWIDTH 6 0
BBX 6 9 0 0
BITMAP
7C
40
40
78
40
40
E0
40
40
ENDCHAR
STARTCHAR U+20A4
ENCODING 8356
SWIDTH 822 0
DWIDTH 6 0
BBX 5 9 1 0
BITMAP
30
40
40
F0
40
F0
40
40
B8
ENDCHAR
STARTCHAR U+20A7
ENCODING 8359
SWIDTH 822 0
DWIDTH 6 0
BBX 5 9 1 0
BITMAP
C0
A0
A0
B0
D8
90
90
90
88
ENDCHAR
STARTCHAR U+20AC
ENCODING 8364
SWIDTH 822 0
DWIDTH 6 0
BBX 6 9 0 0
BITMAP
1C
20
40
F8
40
F8
40
20
1C
ENDCHAR
STARTCHAR U+2105
ENCODING 8453
SWIDTH 822 0
DWIDTH 6 0
BBX 5 9 1 0
BITMAP
60
80
80
60
00
10
28
28
10
ENDCHAR
STARTCHAR U+2113
ENCODING 8467
SWIDTH 822 0
DWIDTH 6 0
BBX 5 9 1 0
BITMAP
20
50
50
50
60
40
C0
48
30
ENDCHAR
STARTCHAR U+2116
ENCODING 8470
SWIDTH 822 0
DWIDTH 6 0
BBX 6 9 0 0
BITMAP
C0
A8
B4
B4
A8
A0
BC
A0
A0
ENDCHAR
STARTCHAR U+2122
ENCODING 8482
SWIDTH 822 0
DWIDTH 6 0
BBX 5 6 1 3
BITMAP
F8
20
20
88
D8
A8
ENDCHAR
STARTCHAR U+2126
ENCODING 8486
SWIDTH 822 0
DWIDTH 6 0
BBX 5 9 1 0
BITMAP
70
88
88
88
88
88
50
50
D8
ENDCHAR
STARTCHAR U+212E
ENCODING 8494
SWIDTH 822 0
DWIDTH 6 0
BBX 7 7 0 0
BITMAP
38
44
C6
FE
C0
44
38
ENDCHAR
STARTCHAR U+215B
ENCODING 8539
SWIDTH 822 0
DWIDTH 6 0
BBX 5 11 1 -1
BITMAP
40
C0
40
40
E0
00
18
28
10
28
30
ENDCHAR
STARTCHAR U+215C
ENCODING 8540
SWIDTH 822 0
DWIDTH 6 0
BBX 5 11 1 -1
BITMAP
C0
20
40
20
C0
00
18
28
10
28
30
ENDCHAR
STARTCHAR U+215D
ENCODING 8541
SWIDTH 822 0
DWIDTH 6 0
BBX 5 11 1 -1
BITMAP
E0
80
C0
20
C0
00
18
28
10
28
30
ENDCHAR
STARTCHAR U+215E
ENCODING 8542
SWIDTH 822 0
DWIDTH 6 0
BBX 5 11 1 -1
BITMAP
E0
20
40
40
40
00
18
28
10
28
30
ENDCHAR
STARTCHAR U+2190
ENCODING 8592
SWIDTH 822 0
DWIDTH 6 0
BBX 5 5 1 1
BITMAP
20
40
F8
40
20
ENDCHAR
STARTCHAR U+2191
ENCODING 8593
SWIDTH 822 0
DWIDTH 6 0
BBX 5 9 1 -1
BITMAP
20
70
A8
20
20
20
20
20
20
ENDCHAR
STARTCHAR U+2192
ENCODING 8594
SWIDTH 822 0
DWIDTH 6 0
BBX 5 5 1 1
BITMAP
20
10
F8
10
20
ENDCHAR
STARTCHAR U+2193
ENCODING 8595
SWIDTH 822 0
DWIDTH 6 0
BBX 5 9 1 -1
BITMAP
20
20
20
20
20
20
A8
70
20
ENDCHAR
STARTCHAR U+2194
ENCODING 8596
SWIDTH 822 0
DWIDTH 6 0
BBX 7 5 0 1
BITMAP
28
44
FE
44
28
ENDCHAR
STARTCHAR U+2195
ENCODING 8597
SWIDTH 822 0
DWIDTH 6 0
BBX 5 9 1 -1
BITMAP
20
70
A8
20
20
20
A8
70
20
ENDCHAR
STARTCHAR U+21A8
ENCODING 8616
SWIDTH 822 0
DWIDTH 6 0
BBX 5 10 1 -2
BITMAP
20
70
A8
20
20
20
A8
70
20
F8
ENDCHAR
STARTCHAR U+2202
ENCODING 8706
SWIDTH 822 0
DWIDTH 6 0
BBX 5 8 1 0
BITMAP
30
48
08
78
88
88
90
60
ENDCHAR
STARTCHAR U+2206
ENCODING 8710
SWIDTH 822 0
DWIDTH 6 0
BBX 5 6 1 1
BITMAP
20
20
50
50
88
F8
ENDCHAR
STARTCHAR U+220F
ENCODING 8719
SWIDTH 822 0
DWIDTH 6 0
BBX 5 13 1 -3
BITMAP
F8
88
88
88
88
88
88
88
88
88
88
88
88
ENDCHAR
STARTCHAR U+2211
ENCODING 8721
SWIDTH 822 0
DWIDTH 6 0
BBX 5 13 1 -3
BITMAP
F8
80
40
40
20
20
10
20
20
40
40
80
F8
ENDCHAR
STARTCHAR U+2212
ENCODING 8722
SWIDTH 822 0
DWIDTH 6 0
BBX 5 1 1 3
BITMAP
F8
ENDCHAR
STARTCHAR U+2215
ENCODING 8725
SWIDTH 822 0
DWIDTH 6 0
BBX 5 10 1 -1
BITMAP
08
08
10
10
20
20
40
40
80
80
ENDCHAR
STARTCHAR U+2219
ENCODING 8729
SWIDTH 822 0
DWIDTH 6 0
BBX 1 1 3 3
BITMAP
80
ENDCHAR
STARTCHAR U+221A
ENCODING 8730
SWIDTH 822 0
DWIDTH 6 0
BBX 5 9 1 0
BITMAP
08
08
08
10
10
D0
20
20
20
ENDCHAR
STARTCHAR U+221E
ENCODING 8734
SWIDTH 822 0
DWIDTH 6 0
BBX 7 4 0 1
BITMAP
6C
92
92
6C
ENDCHAR
STARTCHAR U+221F
ENCODING 8735
SWIDTH 822 0
DWIDTH 6 0
BBX 5 5 1 1
BITMAP
80
80
80
80
F8
ENDCHAR
STARTCHAR U+2229
ENCODING 8745
SWIDTH 822 0
DWIDTH 6 0
BBX 5 7 1 0
BITMAP
70
88
88
88
88
88
88
ENDCHAR
STARTCHAR U+222B
ENCODING 8747
SWIDTH 822 0
DWIDTH 6 0
BBX 5 13 1 -3
BITMAP
18
20
20
20
20
20
20
20
20
20
20
20
C0
ENDCHAR
STARTCHAR U+2248
ENCODING 8776
SWIDTH 822 0
DWIDTH 6 0
BBX 5 4 1 2
BITMAP
60
98
60
98
ENDCHAR
STARTCHAR U+2260
ENCODING 8800
SWIDTH 822 0
DWIDTH 6 0
BBX 5 5 1 1
BITMAP
10
F8
20
F8
40
ENDCHAR
STARTCHAR U+2261
ENCODING 8801
SWIDTH 822 0
DWIDTH 6 0
BBX 5 5 1 1
BITMAP
F8
00
F8
00
F8
ENDCHAR
STARTCHAR U+2264
ENCODING 8804
SWIDTH 822 0
DWIDTH 6 0
BBX 5 7 1 0
BITMAP
18
60
80
60
18
00
F8
ENDCHAR
STARTCHAR U+2265
ENCODING 8805
SWIDTH 822 0
DWIDTH 6 0
BBX 5 7 1 0
BITMAP
C0
30
08
30
C0
00
F8
ENDCHAR
STARTCHAR U+2302
ENCODING 8962
SWIDTH 822 0
DWIDTH 6 0
BBX 5 6 1 1
BITMAP
20
50
88
88
88
F8
ENDCHAR
STARTCHAR U+2310
ENCODING 8976
SWIDTH 822 0
DWIDTH 6 0
BBX 5 3 1 1
BITMAP
F8
80
80
ENDCHAR
STARTCHAR U+2320
ENCODING 8992
SWIDTH 822 0
DWIDTH 6 0
BBX 3 15 3 -4
BITMAP
60
80
80
80
80
80
80
80
80
80
80
80
80
80
80
ENDCHAR
STARTCHAR U+2321
ENCODING 8993
SWIDTH 822 0
DWIDTH 6 0
BBX 3 15 1 -3
BITMAP
20
20
20
20
20
20
20
20
20
20
20
20
20
20
C0
ENDCHAR
STARTCHAR U+2500
ENCODING 9472
SWIDTH 822 0
DWIDTH 6 0
BBX 7 1 0 3
BITMAP
FE
ENDCHAR
STARTCHAR U+2501
ENCODING 9473
SWIDTH 822 0
DWIDTH 6 0
BBX 7 3 0 2
BITMAP
FE
FE
FE
ENDCHAR
STARTCHAR U+2502
ENCODING 9474
SWIDTH 822 0
DWIDTH 6 0
BBX 1 17 3 -5
BITMAP
80
80
80
80
80
80
80
80
80
80
80
80
80
80
80
80
80
ENDCHAR
STARTCHAR U+2503
ENCODING 9475
SWIDTH 822 0
DWIDTH 6 0
BBX 3 17 2 -5
BITMAP
E0
E0
E0
E0
E0
E0
E0
E0
E0
E0
E0
E0
E0
E0
E0
E0
E0
ENDCHAR
STARTCHAR U+2504
ENCODING 9476
SWIDTH 822 0
DWIDTH 6 0
BBX 6 1 0 3
BITMAP
B4
ENDCHAR
STARTCHAR U+2505
ENCODING 9477
SWIDTH 822 0
DWIDTH 6 0
BBX 6 3 0 2
BITMAP
B4
B4
B4
ENDCHAR
STARTCHAR U+2506
ENCODING 9478
SWIDTH 822 0
DWIDTH 6 0
BBX 1 15 3 -4
BITMAP
80
80
80
80
00
80
80
80
80
80
00
80
80
80
80
ENDCHAR
STARTCHAR U+2507
ENCODING 9479
SWIDTH 822 0
DWIDTH 6 0
BBX 3 15 2 -4
BITMAP
E0
E0
E0
E0
00
E0
E0
E0
E0
E0
00
E0
E0
E0
E0
ENDCHAR
STARTCHAR U+2508
ENCODING 9480
SWIDTH 822 0
DWIDTH 6 0
BBX 7 1 0 3
BITMAP
AA
ENDCHAR
STARTCHAR U+2509
ENCODING 9481
SWIDTH 822 0
DWIDTH 6 0
BBX 7 3 0 2
BITMAP
AA
AA
AA
ENDCHAR
STARTCHAR U+250A
ENCODING 9482
SWIDTH 822 0
DWIDTH 6 0
BBX 1 15 3 -4
BITMAP
80
80
80
00
80
80
80
00
80
80
80
00
80
80
80
ENDCHAR
STARTCHAR U+250B
ENCODING 9483
SWIDTH 822 0
DWIDTH 6 0
BBX 3 15 2 -4
BITMAP
E0
E0
E0
00
E0
E0
E0
00
E0
E0
E0
00
E0
E0
E0
ENDCHAR
STARTCHAR U+250C
ENCODING 9484
SWIDTH 822 0
DWIDTH 6 0
BBX 4 9 3 -5
BITMAP
F0
80
80
80
80
80
80
80
80
ENDCHAR
STARTCHAR U+250D
ENCODING 9485
SWIDTH 822 0
DWIDTH 6 0
BBX 4 10 3 -5
BITMAP
F0
F0
F0
80
80
80
80
80
80
80
ENDCHAR
STARTCHAR U+250E
ENCODING 9486
SWIDTH 822 0
DWIDTH 6 0
BBX 5 9 2 -5
BITMAP
F8
E0
E0
E0
E0
E0
E0
E0
E0
ENDCHAR
STARTCHAR U+250F
ENCODING 9487
SWIDTH 822 0
DWIDTH 6 0
BBX 5 10 2 -5
BITMAP
F8
F8
F8
E0
E0
E0
E0
E0
E0
E0
ENDCHAR
STARTCHAR U+2510
ENCODING 9488
SWIDTH 822 0
DWIDTH 6 0
BBX 4 9 0 -5
BITMAP
F0
10
10
10
10
10
10
10
10
ENDCHAR
STARTCHAR U+2511
ENCODING 9489
SWIDTH 822 0
DWIDTH 6 0
BBX 4 10 0 -5
BITMAP
F0
F0
F0
10
10
10
10
10
10
10
ENDCHAR
STARTCHAR U+2512
ENCODING 9490
SWIDTH 822 0
DWIDTH 6 0
BBX 5 9 0 -5
BITMAP
F8
38
38
38
38
38
38
38
38
ENDCHAR
STARTCHAR U+2513
ENCODING 9491
SWIDTH 822 0
DWIDTH 6 0
BBX 5 10 0 -5
BITMAP
F8
F8
F8
38
38
38
38
38
38
38
ENDCHAR
STARTCHAR U+2514
ENCODING 9492
SWIDTH 822 0
DWIDTH 6 0
BBX 4 9 3 3
BITMAP
80
80
80
80
80
80
80
80
F0
ENDCHAR
STARTCHAR U+2515
ENCODING 9493
SWIDTH 822 0
DWIDTH 6 0
BBX 4 10 3 2
BITMAP
80
80
80
80
80
80
80
F0
F0
F0
ENDCHAR
STARTCHAR U+2516
ENCODING 9494
SWIDTH 822 0
DWIDTH 6 0
BBX 5 9 2 3
BITMAP
E0
E0
E0
E0
E0
E0
E0
E0
F8
ENDCHAR
STARTCHAR U+2517
ENCODING 9495
SWIDTH 822 0
DWIDTH 6 0
BBX 5 10 2 2
BITMAP
E0
E0
E0
E0
E0
E0
E0
F8
F8
F8
ENDCHAR
STARTCHAR U+2518
ENCODING 9496
SWIDTH 822 0
DWIDTH 6 0
BBX 4 9 0 3
BITMAP
10
10
10
10
10
10
10
10
F0
ENDCHAR
STARTCHAR U+2519
ENCODING 9497
SWIDTH 822 0
DWIDTH 6 0
BBX 4 10 0 2
BITMAP
10
10
10
10
10
10
10
F0
F0
F0
ENDCHAR
STARTCHAR U+251A
ENCODING 9498
SWIDTH 822 0
DWIDTH 6 0
BBX 5 9 0 3
BITMAP
38
38
38
38
38
38
38
38
F8
ENDCHAR
STARTCHAR U+251B
ENCODING 9499
SWIDTH 822 0
DWIDTH 6 0
BBX 5 10 0 2
BITMAP
38
38
38
38
38
38
38
F8
F8
F8
ENDCHAR
STARTCHAR U+251C
ENCODING 9500
SWIDTH 822 0
DWIDTH 6 0
BBX 4 17 3 -5
BITMAP
80
80
80
80
80
80
80
80
F0
80
80
80
80
80
80
80
80
ENDCHAR
STARTCHAR U+251D
ENCODING 9501
SWIDTH 822 0
DWIDTH 6 0
BBX 4 17 3 -5
BITMAP
80
80
80
80
80
80
80
F0
F0
F0
80
80
80
80
80
80
80
ENDCHAR
STARTCHAR U+251E
ENCODING 9502
SWIDTH 822 0
DWIDTH 6 0
BBX 5 17 2 -5
BITMAP
E0
E0
E0
E0
E0
E0
E0
E0
F8
40
40
40
40
40
40
40
40
ENDCHAR
STARTCHAR U+251F
ENCODING 9503
SWIDTH 822 0
DWIDTH 6 0
BBX 5 17 2 -5
BITMAP
40
40
40
40
40
40
40
40
F8
E0
E0
E0
E0
E0
E0
E0
E0
ENDCHAR
STARTCHAR U+2520
ENCODING 9504
SWIDTH 822 0
DWIDTH 6 0
BBX 5 17 2 -5
BITMAP
E0
E0
E0
E0
E0
E0
E0
E0
F8
E0
E0
E0
E0
E0
E0
E0
E0
ENDCHAR
STARTCHAR U+2521
ENCODING 9505
SWIDTH 822 0
DWIDTH 6 0
BBX 5 17 2 -5
BITMAP
E0
E0
E0
E0
E0
E0
E0
F8
F8
F8
40
40
40
40
40
40
40
ENDCHAR
STARTCHAR U+2522
ENCODING 9506
SWIDTH 822 0
DWIDTH 6 0
BBX 5 17 2 -5
BITMAP
40
40
40
40
40
40
40
F8
F8
F8
E0
E0
E0
E0
E0
E0
E0
ENDCHAR
STARTCHAR U+2523
ENCODING 9507
SWIDTH 822 0
DWIDTH 6 0
BBX 5 17 2 -5
BITMAP
E0
E0
E0
E0
E0
E0
E0
F8
F8
F8
E0
E0
E0
E0
E0
E0
E0
ENDCHAR
STARTCHAR U+2524
ENCODING 9508
SWIDTH 822 0
DWIDTH 6 0
BBX 4 17 0 -5
BITMAP
10
10
10
10
10
10
10
10
F0
10
10
10
10
10
10
10
10
ENDCHAR
STARTCHAR U+2525
ENCODING 9509
SWIDTH 822 0
DWIDTH 6 0
BBX 4 17 0 -5
BITMAP
10
10
10
10
10
10
10
F0
F0
F0
10
10
10
10
10
10
10
ENDCHAR
STARTCHAR U+2526
ENCODING 9510
SWIDTH 822 0
DWIDTH 6 0
BBX 5 17 0 -5
BITMAP
38
38
38
38
38
38
38
38
F8
10
10
10
10
10
10
10
10
ENDCHAR
STARTCHAR U+2527
ENCODING 9511
SWIDTH 822 0
DWIDTH 6 0
BBX 5 17 0 -5
BITMAP
10
10
10
10
10
10
10
10
F8
38
38
38
38
38
38
38
38
ENDCHAR
STARTCHAR U+2528
ENCODING 9512
SWIDTH 822 0
DWIDTH 6 0
BBX 5 17 0 -5
BITMAP
38
38
38
38
38
38
38
38
F8
38
38
38
38
38
38
38
38
ENDCHAR
STARTCHAR U+2529
ENCODING 9513
SWIDTH 822 0
DWIDTH 6 0
BBX 5 17 0 -5
BITMAP
38
38
38
38
38
38
38
F8
F8
F8
10
10
10
10
10
10
10
ENDCHAR
STARTCHAR U+252A
ENCODING 9514
SWIDTH 822 0
DWIDTH 6 0
BBX 5 17 0 -5
BITMAP
10
10
10
10
10
10
10
F8
F8
F8
38
38
38
38
38
38
38
ENDCHAR
STARTCHAR U+252B
ENCODING 9515
SWIDTH 822 0
DWIDTH 6 0
BBX 5 17 0 -5
BITMAP
38
38
38
38
38
38
38
F8
F8
F8
38
38
38
38
38
38
38
ENDCHAR
STARTCHAR U+252C
ENCODING 9516
SWIDTH 822 0
DWIDTH 6 0
BBX 7 9 0 -5
BITMAP
FE
10
10
10
10
10
10
10
10
ENDCHAR
STARTCHAR U+252D
ENCODING 9517
SWIDTH 822 0
DWIDTH 6 0
BBX 7 10 0 -5
BITMAP
F0
FE
F0
10
10
10
10
10
10
10
ENDCHAR
STARTCHAR U+252E
ENCODING 9518
SWIDTH 822 0
DWIDTH 6 0
BBX 7 10 0 -5
BITMAP
1E
FE
1E
10
10
10
10
10
10
10
ENDCHAR
STARTCHAR U+252F
ENCODING 9519
SWIDTH 822 0
DWIDTH 6 0
BBX 7 10 0 -5
BITMAP
FE
FE
FE
10
10
10
10
10
10
10
ENDCHAR
STARTCHAR U+2530
ENCODING 9520
SWIDTH 822 0
DWIDTH 6 0
BBX 7 9 0 -5
BITMAP
FE
38
38
38
38
38
38
38
38
ENDCHAR
STARTCHAR U+2531
ENCODING 9521
SWIDTH 822 0
DWIDTH 6 0
BBX 7 10 0 -5
BITMAP
F8
FE
F8
38
38
38
38
38
38
38
ENDCHAR
STARTCHAR U+2532
ENCODING 9522
SWIDTH 822 0
DWIDTH 6 0
BBX 7 10 0 -5
BITMAP
3E
FE
3E
38
38
38
38
38
38
38
ENDCHAR
STARTCHAR U+2533
ENCODING 9523
SWIDTH 822 0
DWIDTH 6 0
BBX 7 10 0 -5
BITMAP
FE
FE
FE
38
38
38
38
38
38
38
ENDCHAR
STARTCHAR U+2534
ENCODING 9524
SWIDTH 822 0
DWIDTH 6 0
BBX 7 9 0 3
BITMAP
10
10
10
10
10
10
10
10
FE
ENDCHAR
STARTCHAR U+2535
ENCODING 9525
SWIDTH 822 0
DWIDTH 6 0
BBX 7 10 0 2
BITMAP
10
10
10
10
10
10
10
F0
FE
F0
ENDCHAR
STARTCHAR U+2536
ENCODING 9526
SWIDTH 822 0
DWIDTH 6 0
BBX 7 10 0 2
BITMAP
10
10
10
10
10
10
10
1E
FE
1E
ENDCHAR
STARTCHAR U+2537
ENCODING 9527
SWIDTH 822 0
DWIDTH 6 0
BBX 7 10 0 2
BITMAP
10
10
10
10
10
10
10
FE
FE
FE
ENDCHAR
STARTCHAR U+2538
ENCODING 9528
SWIDTH 822 0
DWIDTH 6 0
BBX 7 9 0 3
BITMAP
38
38
38
38
38
38
38
38
FE
ENDCHAR
STARTCHAR U+2539
ENCODING 9529
SWIDTH 822 0
DWIDTH 6 0
BBX 7 10 0 2
BITMAP
38
38
38
38
38
38
38
F8
FE
F8
ENDCHAR
STARTCHAR U+253A
ENCODING 9530
SWIDTH 822 0
DWIDTH 6 0
BBX 7 10 0 2
BITMAP
38
38
38
38
38
38
38
3E
FE
3E
ENDCHAR
STARTCHAR U+253B
ENCODING 9531
SWIDTH 822 0
DWIDTH 6 0
BBX 7 10 0 2
BITMAP
38
38
38
38
38
38
38
FE
FE
FE
ENDCHAR
STARTCHAR U+253C
ENCODING 9532
SWIDTH 822 0
DWIDTH 6 0
BBX 7 17 0 -5
BITMAP
10
10
10
10
10
10
10
10
FE
10
10
10
10
10
10
10
10
ENDCHAR
STARTCHAR U+253D
ENCODING 9533
SWIDTH 822 0
DWIDTH 6 0
BBX 7 17 0 -5
BITMAP
10
10
10
10
10
10
10
F0
FE
F0
10
10
10
10
10
10
10
ENDCHAR
STARTCHAR U+253E
ENCODING 9534
SWIDTH 822 0
DWIDTH 6 0
BBX 7 17 0 -5
BITMAP
10
10
10
10
10
10
10
1E
FE
1E
10
10
10
10
10
10
10
ENDCHAR
STARTCHAR U+253F
ENCODING 9535
SWIDTH 822 0
DWIDTH 6 0
BBX 7 17 0 -5
BITMAP
10
10
10
10
10
10
10
FE
FE
FE
10
10
10
10
10
10
10
ENDCHAR
STARTCHAR U+2540
ENCODING 9536
SWIDTH 822 0
DWIDTH 6 0
BBX 7 17 0 -5
BITMAP
38
38
38
38
38
38
38
38
FE
10
10
10
10
10
10
10
10
ENDCHAR
STARTCHAR U+2541
ENCODING 9537
SWIDTH 822 0
DWIDTH 6 0
BBX 7 17 0 -5
BITMAP
10
10
10
10
10
10
10
10
FE
38
38
38
38
38
38
38
38
ENDCHAR
STARTCHAR U+2542
ENCODING 9538
SWIDTH 822 0
DWIDTH 6 0
BBX 7 17 0 -5
BITMAP
38
38
38
38
38
38
38
38
FE
38
38
38
38
38
38
38
38
ENDCHAR
STARTCHAR U+2543
ENCODING 9539
SWIDTH 822 0
DWIDTH 6 0
BBX 7 17 0 -5
BITMAP
38
38
38
38
38
38
38
F8
FE
F8
10
10
10
10
10
10
10
ENDCHAR
STARTCHAR U+2544
ENCODING 9540
SWIDTH 822 0
DWIDTH 6 0
BBX 7 17 0 -5
BITMAP
38
38
38
38
38
38
38
3E
FE
3E
10
10
10
10
10
10
10
ENDCHAR
STARTCHAR U+2545
ENCODING 9541
SWIDTH 822 0
DWIDTH 6 0
BBX 7 17 0 -5
BITMAP
10
10
10
10
10
10
10
F8
FE
F8
38
38
38
38
38
38
38
ENDCHAR
STARTCHAR U+2546
ENCODING 9542
SWIDTH 822 0
DWIDTH 6 0
BBX 7 17 0 -5
BITMAP
10
10
10
10
10
10
10
3E
FE
3E
38
38
38
38
38
38
38
ENDCHAR
STARTCHAR U+2547
ENCODING 9543
SWIDTH 822 0
DWIDTH 6 0
BBX 7 17 0 -5
BITMAP
38
38
38
38
38
38
38
FE
FE
FE
10
10
10
10
10
10
10
ENDCHAR
STARTCHAR U+2548
ENCODING 9544
SWIDTH 822 0
DWIDTH 6 0
BBX 7 17 0 -5
BITMAP
10
10
10
10
10
10
10
FE
FE
FE
38
38
38
38
38
38
38
ENDCHAR
STARTCHAR U+2549
ENCODING 9545
SWIDTH 822 0
DWIDTH 6 0
BBX 7 17 0 -5
BITMAP
38
38
38
38
38
38
38
F8
FE
F8
38
38
38
38
38
38
38
ENDCHAR
STARTCHAR U+254A
ENCODING 9546
SWIDTH 822 0
DWIDTH 6 0
BBX 7 17 0 -5
BITMAP
38
38
38
38
38
38
38
3E
FE
3E
38
38
38
38
38
38
38
ENDCHAR
STARTCHAR U+254B
ENCODING 9547
SWIDTH 822 0
DWIDTH 6 0
BBX 7 17 0 -5
BITMAP
38
38
38
38
38
38
38
FE
FE
FE
38
38
38
38
38
38
38
ENDCHAR
STARTCHAR U+254C
ENCODING 9548
SWIDTH 822 0
DWIDTH 6 0
BBX 7 1 0 3
BITMAP
EE
ENDCHAR
STARTCHAR U+254D
ENCODING 9549
SWIDTH 822 0
DWIDTH 6 0
BBX 7 3 0 2
BITMAP
EE
EE
EE
ENDCHAR
STARTCHAR U+254E
ENCODING 9550
SWIDTH 822 0
DWIDTH 6 0
BBX 1 15 3 -4
BITMAP
80
80
80
80
80
80
80
00
80
80
80
80
80
80
80
ENDCHAR
STARTCHAR U+254F
ENCODING 9551
SWIDTH 822 0
DWIDTH 6 0
BBX 3 15 2 -4
BITMAP
E0
E0
E0
E0
E0
E0
E0
00
E0
E0
E0
E0
E0
E0
E0
ENDCHAR
STARTCHAR U+2550
ENCODING 9552
SWIDTH 822 0
DWIDTH 6 0
BBX 7 3 0 2
BITMAP
FE
00
FE
ENDCHAR
STARTCHAR U+2551
ENCODING 9553
SWIDTH 822 0
DWIDTH 6 0
BBX 3 17 2 -5
BITMAP
A0
A0
A0
A0
A0
A0
A0
A0
A0
A0
A0
A0
A0
A0
A0
A0
A0
ENDCHAR
STARTCHAR U+2552
ENCODING 9554
SWIDTH 822 0
DWIDTH 6 0
BBX 4 10 3 -5
BITMAP
F0
80
F0
80
80
80
80
80
80
80
ENDCHAR
STARTCHAR U+2553
ENCODING 9555
SWIDTH 822 0
DWIDTH 6 0
BBX 5 9 2 -5
BITMAP
F8
A0
A0
A0
A0
A0
A0
A0
A0
ENDCHAR
STARTCHAR U+2554
ENCODING 9556
SWIDTH 822 0
DWIDTH 6 0
BBX 5 10 2 -5
BITMAP
F8
80
B8
A0
A0
A0
A0
A0
A0
A0
ENDCHAR
STARTCHAR U+2555
ENCODING 9557
SWIDTH 822 0
DWIDTH 6 0
BBX 4 10 0 -5
BITMAP
F0
10
F0
10
10
10
10
10
10
10
ENDCHAR
STARTCHAR U+2556
ENCODING 9558
SWIDTH 822 0
DWIDTH 6 0
BBX 5 9 0 -5
BITMAP
F8
28
28
28
28
28
28
28
28
ENDCHAR
STARTCHAR U+2557
ENCODING 9559
SWIDTH 822 0
DWIDTH 6 0
BBX 5 10 0 -5
BITMAP
F8
08
E8
28
28
28
28
28
28
28
ENDCHAR
STARTCHAR U+2558
ENCODING 9560
SWIDTH 822 0
DWIDTH 6 0
BBX 4 10 3 2
BITMAP
80
80
80
80
80
80
80
F0
80
F0
ENDCHAR
STARTCHAR U+2559
ENCODING 9561
SWIDTH 822 0
DWIDTH 6 0
BBX 5 9 2 3
BITMAP
A0
A0
A0
A0
A0
A0
A0
A0
F8
ENDCHAR
STARTCHAR U+255A
ENCODING 9562
SWIDTH 822 0
DWIDTH 6 0
BBX 5 10 2 2
BITMAP
A0
A0
A0
A0
A0
A0
A0
B8
80
F8
ENDCHAR
STARTCHAR U+255B
ENCODING 9563
SWIDTH 822 0
DWIDTH 6 0
BBX 4 10 0 2
BITMAP
10
10
10
10
10
10
10
F0
10
F0
ENDCHAR
STARTCHAR U+255C
ENCODING 9564
SWIDTH 822 0
DWIDTH 6 0
BBX 5 9 0 3
BITMAP
28
28
28
28
28
28
28
28
F8
ENDCHAR
STARTCHAR U+255D
ENCODING 9565
SWIDTH 822 0
DWIDTH 6 0
BBX 5 10 0 2
BITMAP
28
28
28
28
28
28
28
E8
08
F8
ENDCHAR
STARTCHAR U+255E
ENCODING 9566
SWIDTH 822 0
DWIDTH 6 0
BBX 4 17 3 -5
BITMAP
80
80
80
80
80
80
80
F0
80
F0
80
80
80
80
80
80
80
ENDCHAR
STARTCHAR U+255F
ENCODING 9567
SWIDTH 822 0
DWIDTH 6 0
BBX 5 17 2 -5
BITMAP
A0
A0
A0
A0
A0
A0
A0
A0
B8
A0
A0
A0
A0
A0
A0
A0
A0
ENDCHAR
STARTCHAR U+2560
ENCODING 9568
SWIDTH 822 0
DWIDTH 6 0
BBX 5 17 2 -5
BITMAP
A0
A0
A0
A0
A0
A0
A0
B8
80
B8
A0
A0
A0
A0
A0
A0
A0
ENDCHAR
STARTCHAR U+2561
ENCODING 9569
SWIDTH 822 0
DWIDTH 6 0
BBX 4 17 0 -5
BITMAP
10
10
10
10
10
10
10
F0
10
F0
10
10
10
10
10
10
10
ENDCHAR
STARTCHAR U+2562
ENCODING 9570
SWIDTH 822 0
DWIDTH 6 0
BBX 5 17 0 -5
BITMAP
28
28
28
28
28
28
28
28
E8
28
28
28
28
28
28
28
28
ENDCHAR
STARTCHAR U+2563
ENCODING 9571
SWIDTH 822 0
DWIDTH 6 0
BBX 5 17 0 -5
BITMAP
28
28
28
28
28
28
28
E8
08
E8
28
28
28
28
28
28
28
ENDCHAR
STARTCHAR U+2564
ENCODING 9572
SWIDTH 822 0
DWIDTH 6 0
BBX 7 10 0 -5
BITMAP
FE
00
FE
10
10
10
10
10
10
10
ENDCHAR
STARTCHAR U+2565
ENCODING 9573
SWIDTH 822 0
DWIDTH 6 0
BBX 7 9 0 -5
BITMAP
FE
28
28
28
28
28
28
28
28
ENDCHAR
STARTCHAR U+2566
ENCODING 9574
SWIDTH 822 0
DWIDTH 6 0
BBX 7 10 0 -5
BITMAP
FE
00
EE
28
28
28
28
28
28
28
ENDCHAR
STARTCHAR U+2567
ENCODING 9575
SWIDTH 822 0
DWIDTH 6 0
BBX 7 10 0 2
BITMAP
10
10
10
10
10
10
10
FE
00
FE
ENDCHAR
STARTCHAR U+2568
ENCODING 9576
SWIDTH 822 0
DWIDTH 6 0
BBX 7 9 0 3
BITMAP
28
28
28
28
28
28
28
28
FE
ENDCHAR
STARTCHAR U+2569
ENCODING 9577
SWIDTH 822 0
DWIDTH 6 0
BBX 7 10 0 2
BITMAP
28
28
28
28
28
28
28
EE
00
FE
ENDCHAR
STARTCHAR U+256A
ENCODING 9578
SWIDTH 822 0
DWIDTH 6 0
BBX 7 17 0 -5
BITMAP
10
10
10
10
10
10
10
FE
10
FE
10
10
10
10
10
10
10
ENDCHAR
STARTCHAR U+256B
ENCODING 9579
SWIDTH 822 0
DWIDTH 6 0
BBX 7 17 0 -5
BITMAP
28
28
28
28
28
28
28
28
FE
28
28
28
28
28
28
28
28
ENDCHAR
STARTCHAR U+256C
ENCODING 9580
SWIDTH 822 0
DWIDTH 6 0
BBX 7 17 0 -5
BITMAP
28
28
28
28
28
28
28
EE
00
EE
28
28
28
28
28
28
28
ENDCHAR
STARTCHAR U+256D
ENCODING 9581
SWIDTH 822 0
DWIDTH 6 0
BBX 4 9 3 -5
BITMAP
30
40
80
80
80
80
80
80
80
ENDCHAR
STARTCHAR U+256E
ENCODING 9582
SWIDTH 822 0
DWIDTH 6 0
BBX 4 9 0 -5
BITMAP
C0
20
10
10
10
10
10
10
10
ENDCHAR
STARTCHAR U+256F
ENCODING 9583
SWIDTH 822 0
DWIDTH 6 0
BBX 4 9 0 3
BITMAP
10
10
10
10
10
10
10
20
C0
ENDCHAR
STARTCHAR U+2570
ENCODING 9584
SWIDTH 822 0
DWIDTH 6 0
BBX 4 9 3 3
BITMAP
80
80
80
80
80
80
80
40
30
ENDCHAR
STARTCHAR U+2571
ENCODING 9585
SWIDTH 822 0
DWIDTH 6 0
BBX 7 17 0 -5
BITMAP
02
02
04
04
04
08
08
10
10
10
20
20
40
40
40
80
80
ENDCHAR
STARTCHAR U+2572
ENCODING 9586
SWIDTH 822 0
DWIDTH 6 0
BBX 7 17 0 -5
BITMAP
80
80
40
40
40
20
20
10
10
10
08
08
04
04
04
02
02
ENDCHAR
STARTCHAR U+2573
ENCODING 9587
SWIDTH 822 0
DWIDTH 6 0
BBX 7 17 0 -5
BITMAP
82
82
44
44
44
28
28
10
10
10
28
28
44
44
44
82
82
ENDCHAR
STARTCHAR U+2574
ENCODING 9588
SWIDTH 822 0
DWIDTH 6 0
BBX 4 1 0 3
BITMAP
F0
ENDCHAR
STARTCHAR U+2575
ENCODING 9589
SWIDTH 822 0
DWIDTH 6 0
BBX 1 9 3 3
BITMAP
80
80
80
80
80
80
80
80
80
ENDCHAR
STARTCHAR U+2576
ENCODING 9590
SWIDTH 822 0
DWIDTH 6 0
BBX 4 1 3 3
BITMAP
F0
ENDCHAR
STARTCHAR U+2577
ENCODING 9591
SWIDTH 822 0
DWIDTH 6 0
BBX 1 9 3 -5
BITMAP
80
80
80
80
80
80
80
80
80
ENDCHAR
STARTCHAR U+2578
ENCODING 9592
SWIDTH 822 0
DWIDTH 6 0
BBX 4 3 0 2
BITMAP
F0
F0
F0
ENDCHAR
STARTCHAR U+2579
ENCODING 9593
SWIDTH 822 0
DWIDTH 6 0
BBX 3 9 2 3
BITMAP
E0
E0
E0
E0
E0
E0
E0
E0
E0
ENDCHAR
STARTCHAR U+257A
ENCODING 9594
SWIDTH 822 0
DWIDTH 6 0
BBX 4 3 3 2
BITMAP
F0
F0
F0
ENDCHAR
STARTCHAR U+257B
ENCODING 9595
SWIDTH 822 0
DWIDTH 6 0
BBX 3 9 2 -5
BITMAP
E0
E0
E0
E0
E0
E0
E0
E0
E0
ENDCHAR
STARTCHAR U+257C
ENCODING 9596
SWIDTH 822 0
DWIDTH 6 0
BBX 7 3 0 2
BITMAP
1E
FE
1E
ENDCHAR
STARTCHAR U+257D
ENCODING 9597
SWIDTH 822 0
DWIDTH 6 0
BBX 3 17 2 -5
BITMAP
40
40
40
40
40
40
40
40
E0
E0
E0
E0
E0
E0
E0
E0
E0
ENDCHAR
STARTCHAR U+257E
ENCODING 9598
SWIDTH 822 0
DWIDTH 6 0
BBX 7 3 0 2
BITMAP
F0
FE
F0
ENDCHAR
STARTCHAR U+257F
ENCODING 9599
SWIDTH 822 0
DWIDTH 6 0
BBX 3 17 2 -5
BITMAP
E0
E0
E0
E0
E0
E0
E0
E0
E0
40
40
40
40
40
40
40
40
ENDCHAR
STARTCHAR U+2580
ENCODING 9600
SWIDTH 822 0
DWIDTH 6 0
BBX 7 8 0 4
BITMAP
FE
FE
FE
FE
FE
FE
FE
FE
ENDCHAR
STARTCHAR U+2581
ENCODING 9601
SWIDTH 822 0
DWIDTH 6 0
BBX 7 2 0 -4
BITMAP
FE
FE
ENDCHAR
STARTCHAR U+2582
ENCODING 9602
SWIDTH 822 0
DWIDTH 6 0
BBX 7 4 0 -4
BITMAP
FE
FE
FE
FE
ENDCHAR
STARTCHAR U+2583
ENCODING 9603
SWIDTH 822 0
DWIDTH 6 0
BBX 7 6 0 -4
BITMAP
FE
FE
FE
FE
FE
FE
ENDCHAR
STARTCHAR U+2584
ENCODING 9604
SWIDTH 822 0
DWIDTH 6 0
BBX 7 8 0 -4
BITMAP
FE
FE
FE
FE
FE
FE
FE
FE
ENDCHAR
STARTCHAR U+2585
ENCODING 9605
SWIDTH 822 0
DWIDTH 6 0
BBX 7 10 0 -4
BITMAP
FE
FE
FE
FE
FE
FE
FE
FE
FE
FE
ENDCHAR
STARTCHAR U+2586
ENCODING 9606
SWIDTH 822 0
DWIDTH 6 0
BBX 7 12 0 -4
BITMAP
FE
FE
FE
FE
FE
FE
FE
FE
FE
FE
FE
FE
ENDCHAR
STARTCHAR U+2587
ENCODING 9607
SWIDTH 822 0
DWIDTH 6 0
BBX 7 14 0 -4
BITMAP
FE
FE
FE
FE
FE
FE
FE
FE
FE
FE
FE
FE
FE
FE
ENDCHAR
STARTCHAR U+2588
ENCODING 9608
SWIDTH 822 0
DWIDTH 6 0
BBX 7 16 0 -4
BITMAP
FE
FE
FE
FE
FE
FE
FE
FE
FE
FE
FE
FE
FE
FE
FE
FE
ENDCHAR
STARTCHAR U+2589
ENCODING 9609
SWIDTH 822 0
DWIDTH 6 0
BBX 6 16 0 -4
BITMAP
FC
FC
FC
FC
FC
FC
FC
FC
FC
FC
FC
FC
FC
FC
FC
FC
ENDCHAR
STARTCHAR U+258A
ENCODING 9610
SWIDTH 822 0
DWIDTH 6 0
BBX 5 16 0 -4
BITMAP
F8
F8
F8
F8
F8
F8
F8
F8
F8
F8
F8
F8
F8
F8
F8
F8
ENDCHAR
STARTCHAR U+258B
ENCODING 9611
SWIDTH 822 0
DWIDTH 6 0
BBX 4 16 0 -4
BITMAP
F0
F0
F0
F0
F0
F0
F0
F0
F0
F0
F0
F0
F0
F0
F0
F0
ENDCHAR
STARTCHAR U+258C
ENCODING 9612
SWIDTH 822 0
DWIDTH 6 0
BBX 3 16 0 -4
BITMAP
E0
E0
E0
E0
E0
E0
E0
E0
E0
E0
E0
E0
E0
E0
E0
E0
ENDCHAR
STARTCHAR U+258D
ENCODING 9613
SWIDTH 822 0
DWIDTH 6 0
BBX 3 16 0 -4
BITMAP
E0
E0
E0
E0
E0
E0
E0
E0
E0
E0
E0
E0
E0
E0
E0
E0
ENDCHAR
STARTCHAR U+258E
ENCODING 9614
SWIDTH 822 0
DWIDTH 6 0
BBX 2 16 0 -4
BITMAP
C0
C0
C0
C0
C0
C0
C0
C0
C0
C0
C0
C0
C0
C0
C0
C0
ENDCHAR
STARTCHAR U+258F
ENCODING 9615
SWIDTH 822 0
DWIDTH 6 0
BBX 1 16 0 -4
BITMAP
80
80
80
80
80
80
80
80
80
80
80
80
80
80
80
80
ENDCHAR
STARTCHAR U+2590
ENCODING 9616
SWIDTH 822 0
DWIDTH 6 0
BBX 3 16 3 -4
BITMAP
E0
E0
E0
E0
E0
E0
E0
E0
E0
E0
E0
E0
E0
E0
E0
E0
ENDCHAR
STARTCHAR U+2591
ENCODING 9617
SWIDTH 822 0
DWIDTH 6 0
BBX 7 17 0 -5
BITMAP
AA
00
54
00
AA
00
54
00
AA
00
54
00
AA
00
54
00
AA
ENDCHAR
STARTCHAR U+2592
ENCODING 9618
SWIDTH 822 0
DWIDTH 6 0
BBX 7 17 0 -5
BITMAP
AA
54
AA
54
AA
54
AA
54
AA
54
AA
54
AA
54
AA
54
AA
ENDCHAR
STARTCHAR U+2593
ENCODING 9619
SWIDTH 822 0
DWIDTH 6 0
BBX 7 17 0 -5
BITMAP
AA
FE
54
FE
AA
FE
54
FE
AA
FE
54
FE
AA
FE
54
FE
AA
ENDCHAR
STARTCHAR U+2594
ENCODING 9620
SWIDTH 822 0
DWIDTH 6 0
BBX 7 2 0 10
BITMAP
FE
FE
ENDCHAR
STARTCHAR U+2595
ENCODING 9621
SWIDTH 822 0
DWIDTH 6 0
BBX 1 16 6 -4
BITMAP
80
80
80
80
80
80
80
80
80
80
80
80
80
80
80
80
ENDCHAR
STARTCHAR U+2596
ENCODING 9622
SWIDTH 822 0
DWIDTH 6 0
BBX 3 8 0 -4
BITMAP
E0
E0
E0
E0
E0
E0
E0
E0
ENDCHAR
STARTCHAR U+2597
ENCODING 9623
SWIDTH 822 0
DWIDTH 6 0
BBX 3 8 3 -4
BITMAP
E0
E0
E0
E0
E0
E0
E0
E0
ENDCHAR
STARTCHAR U+2598
ENCODING 9624
SWIDTH 822 0
DWIDTH 6 0
BBX 3 8 0 4
BITMAP
E0
E0
E0
E0
E0
E0
E0
E0
ENDCHAR
STARTCHAR U+2599
ENCODING 9625
SWIDTH 822 0
DWIDTH 6 0
BBX 6 16 0 -4
BITMAP
E0
E0
E0
E0
E0
E0
E0
E0
FC
FC
FC
FC
FC
FC
FC
FC
ENDCHAR
STARTCHAR U+259A
ENCODING 9626
SWIDTH 822 0
DWIDTH 6 0
BBX 6 16 0 -4
BITMAP
E0
E0
E0
E0
E0
E0
E0
E0
1C
1C
1C
1C
1C
1C
1C
1C
ENDCHAR
STARTCHAR U+259B
ENCODING 9627
SWIDTH 822 0
DWIDTH 6 0
BBX 6 16 0 -4
BITMAP
FC
FC
FC
FC
FC
FC
FC
FC
E0
E0
E0
E0
E0
E0
E0
E0
ENDCHAR
STARTCHAR U+259C
ENCODING 9628
SWIDTH 822 0
DWIDTH 6 0
BBX 6 16 0 -4
BITMAP
FC
FC
FC
FC
FC
FC
FC
FC
1C
1C
1C
1C
1C
1C
1C
1C
ENDCHAR
STARTCHAR U+259D
ENCODING 9629
SWIDTH 822 0
DWIDTH 6 0
BBX 3 8 3 4
BITMAP
E0
E0
E0
E0
E0
E0
E0
E0
ENDCHAR
STARTCHAR U+259E
ENCODING 9630
SWIDTH 822 0
DWIDTH 6 0
BBX 6 16 0 -4
BITMAP
1C
1C
1C
1C
1C
1C
1C
1C
E0
E0
E0
E0
E0
E0
E0
E0
ENDCHAR
STARTCHAR U+259F
ENCODING 9631
SWIDTH 822 0
DWIDTH 6 0
BBX 6 16 0 -4
BITMAP
1C
1C
1C
1C
1C
1C
1C
1C
FC
FC
FC
FC
FC
FC
FC
FC
ENDCHAR
STARTCHAR U+25A0
ENCODING 9632
SWIDTH 822 0
DWIDTH 6 0
BBX 7 7 0 0
BITMAP
FE
FE
FE
FE
FE
FE
FE
ENDCHAR
STARTCHAR U+25A1
ENCODING 9633
SWIDTH 822 0
DWIDTH 6 0
BBX 7 7 0 0
BITMAP
FE
82
82
82
82
82
FE
ENDCHAR
STARTCHAR U+25AA
ENCODING 9642
SWIDTH 822 0
DWIDTH 6 0
BBX 3 3 2 2
BITMAP
E0
E0
E0
ENDCHAR
STARTCHAR U+25AB
ENCODING 9643
SWIDTH 822 0
DWIDTH 6 0
BBX 3 3 2 2
BITMAP
E0
A0
E0
ENDCHAR
STARTCHAR U+25AC
ENCODING 9644
SWIDTH 822 0
DWIDTH 6 0
BBX 7 5 0 1
BITMAP
FE
FE
FE
FE
FE
ENDCHAR
STARTCHAR U+25B2
ENCODING 9650
SWIDTH 822 0
DWIDTH 6 0
BBX 7 7 0 0
BITMAP
10
10
38
38
7C
7C
FE
ENDCHAR
STARTCHAR U+25BA
ENCODING 9658
SWIDTH 822 0
DWIDTH 6 0
BBX 7 5 0 1
BITMAP
80
F0
FE
F0
80
ENDCHAR
STARTCHAR U+25BC
ENCODING 9660
SWIDTH 822 0
DWIDTH 6 0
BBX 7 7 0 0
BITMAP
FE
7C
7C
38
38
10
10
ENDCHAR
STARTCHAR U+25C4
ENCODING 9668
SWIDTH 822 0
DWIDTH 6 0
BBX 7 5 0 1
BITMAP
02
1E
FE
1E
02
ENDCHAR
STARTCHAR U+25CA
ENCODING 9674
SWIDTH 822 0
DWIDTH 6 0
BBX 5 9 1 -1
BITMAP
20
20
50
50
88
50
50
20
20
ENDCHAR
STARTCHAR U+25CB
ENCODING 9675
SWIDTH 822 0
DWIDTH 6 0
BBX 7 7 0 0
BITMAP
38
44
82
82
82
44
38
ENDCHAR
STARTCHAR U+25CF
ENCODING 9679
SWIDTH 822 0
DWIDTH 6 0
BBX 7 7 0 0
BITMAP
38
7C
FE
FE
FE
7C
38
ENDCHAR
STARTCHAR U+25D8
ENCODING 9688
SWIDTH 822 0
DWIDTH 6 0
BBX 3 5 2 1
BITMAP
E0
E0
A0
E0
E0
ENDCHAR
STARTCHAR U+25D9
ENCODING 9689
SWIDTH 822 0
DWIDTH 6 0
BBX 7 7 0 0
BITMAP
FE
C6
BA
BA
BA
C6
FE
ENDCHAR
STARTCHAR U+25E6
ENCODING 9702
SWIDTH 822 0
DWIDTH 6 0
BBX 3 3 2 2
BITMAP
40
A0
40
ENDCHAR
STARTCHAR U+263A
ENCODING 9786
SWIDTH 822 0
DWIDTH 6 0
BBX 5 4 1 2
BITMAP
50
00
88
70
ENDCHAR
STARTCHAR U+263B
ENCODING 9787
SWIDTH 822 0
DWIDTH 6 0
BBX 5 6 1 1
BITMAP
F8
A8
F8
70
88
F8
ENDCHAR
STARTCHAR U+263C
ENCODING 9788
SWIDTH 822 0
DWIDTH 6 0
BBX 7 7 0 0
BITMAP
10
54
38
EE
38
54
10
ENDCHAR
STARTCHAR U+2640
ENCODING 9792
SWIDTH 822 0
DWIDTH 6 0
BBX 5 9 1 -1
BITMAP
70
88
88
88
70
20
F8
20
20
ENDCHAR
STARTCHAR U+2642
ENCODING 9794
SWIDTH 822 0
DWIDTH 6 0
BBX 7 7 0 0
BITMAP
0E
06
7A
88
88
88
70
ENDCHAR
STARTCHAR U+2660
ENCODING 9824
SWIDTH 822 0
DWIDTH 6 0
BBX 7 8 0 -1
BITMAP
10
38
7C
FE
FE
6C
10
38
ENDCHAR
STARTCHAR U+2663
ENCODING 9827
SWIDTH 822 0
DWIDTH 6 0
BBX 7 8 0 -1
BITMAP
10
38
38
54
FE
6C
10
38
ENDCHAR
STARTCHAR U+2665
ENCODING 9829
SWIDTH 822 0
DWIDTH 6 0
BBX 7 7 0 0
BITMAP
6C
FE
FE
FE
7C
38
10
ENDCHAR
STARTCHAR U+2666
ENCODING 9830
SWIDTH 822 0
DWIDTH 6 0
BBX 5 9 1 -1
BITMAP
20
20
70
70
F8
70
70
20
20
ENDCHAR
STARTCHAR U+266A
ENCODING 9834
SWIDTH 822 0
DWIDTH 6 0
BBX 5 9 1 -1
BITMAP
20
20
30
28
28
20
60
E0
C0
ENDCHAR
STARTCHAR U+266B
ENCODING 9835
SWIDTH 822 0
DWIDTH 6 0
BBX 7 9 0 -1
BITMAP
3E
22
22
22
22
22
66
EE
CC
ENDCHAR
STARTCHAR U+FB01
ENCODING 64257
SWIDTH 822 0
DWIDTH 6 0
BBX 5 11 1 -2
BITMAP
30
40
48
40
F8
48
48
48
48
40
80
ENDCHAR
STARTCHAR U+FB02
ENCODING 64258
SWIDTH 822 0
DWIDTH 6 0
BBX 5 11 1 -2
BITMAP
38
48
48
48
E8
48
48
48
48
40
80
ENDCHAR
ENDFONT
